<svg xmlns="http://www.w3.org/2000/svg" version="1.1" xmlns:xlink="http://www.w3.org/1999/xlink" xmlns:svgjs="http://svgjs.dev/svgjs" width="1000" height="623" viewBox="0 0 1000 623"><g transform="matrix(1,0,0,1,-0.6060606060606233,0.2522267206477409)"><svg viewBox="0 0 396 247" data-background-color="#fbcd08" preserveAspectRatio="xMidYMid meet" height="623" width="1000" xmlns="http://www.w3.org/2000/svg" xmlns:xlink="http://www.w3.org/1999/xlink"><defs></defs><g id="tight-bounds" transform="matrix(1,0,0,1,0.2400000000000091,-0.09999999999999432)"><svg viewBox="0 0 395.52 247.2" height="247.2" width="395.52"><g><svg></svg></g><g><svg viewBox="0 0 395.52 247.2" height="247.2" width="395.52"><g transform="matrix(4.372444444444445, 0, 0, 4.372444444444445, 0.9999999999999716, 17.65128639051649)"><svg xmlns="http://www.w3.org/2000/svg" xmlns:xlink="http://www.w3.org/1999/xlink" version="1.1" x="0" y="0" viewBox="5 25.768999099731445 90 48.462005615234375" enable-background="new 0 0 100 100" xml:space="preserve" height="48.462005615234375" width="90" class="icon-none" data-fill-palette-color="accent" id="none"><g fill="#000000" data-fill-palette-color="accent"><rect x="5" y="43.077" fill="#000000" width="3.462" height="13.846" data-fill-palette-color="accent"></rect><rect x="11.923" y="32.692" fill="#000000" width="3.462" height="34.615" data-fill-palette-color="accent"></rect><rect x="18.846" y="25.769" fill="#000000" width="6.924" height="48.462" data-fill-palette-color="accent"></rect><rect x="29.23" y="46.539" fill="#000000" width="41.539" height="6.923" data-fill-palette-color="accent"></rect><rect x="91.538" y="43.077" fill="#000000" width="3.462" height="13.846" data-fill-palette-color="accent"></rect><rect x="84.615" y="32.692" fill="#000000" width="3.462" height="34.615" data-fill-palette-color="accent"></rect><rect x="74.23" y="25.769" fill="#000000" width="6.924" height="48.462" data-fill-palette-color="accent"></rect></g></svg></g><rect width="348.05760000000004" height="37.37269807849804" fill="#fbcd08" y="104.91365096075097" x="23.731199999999973" data-fill-palette-color="quaternary"></rect><g transform="matrix(1,0,0,1,39.55199999999999,110.90678011560694)"><svg viewBox="0 0 316.416 25.38643976878613" height="25.38643976878613" width="316.416"><g><svg viewBox="0 0 316.416 25.38643976878613" height="25.38643976878613" width="316.416"><g><svg viewBox="0 0 316.416 25.38643976878613" height="25.38643976878613" width="316.416"><g><svg viewBox="0 0 316.416 25.38643976878613" height="25.38643976878613" width="316.416"><g><svg viewBox="0 0 316.416 25.38643976878613" height="25.38643976878613" width="316.416"><g transform="matrix(1,0,0,1,0,0)"><svg width="316.416" viewBox="1.75 -34.25 432.4700012207031 34.70000076293945" height="25.38643976878613" data-palette-color="#080000"><path d="M18.4 0.45L18.4 0.45Q13.4 0.45 9.63-1.73 5.85-3.9 3.8-7.9 1.75-11.9 1.75-17.3L1.75-17.3Q1.75-21.5 3.18-24.68 4.6-27.85 7.05-29.98 9.5-32.1 12.63-33.18 15.75-34.25 19.2-34.25L19.2-34.25Q22.75-34.25 25.85-33.58 28.95-32.9 31.15-31.85L31.15-31.85Q30.8-30.1 30.7-28.2 30.6-26.3 30.6-24.1L30.6-24.1Q29.9-23.85 29.18-23.73 28.45-23.6 27.6-23.6L27.6-23.6Q27.5-27 26.4-28.78 25.3-30.55 23.53-31.23 21.75-31.9 19.5-31.9L19.5-31.9Q15.5-31.9 12.9-30 10.3-28.1 9.05-25.03 7.8-21.95 7.8-18.45L7.8-18.45Q7.8-13.9 9.1-10.25 10.4-6.6 12.98-4.42 15.55-2.25 19.35-2.25L19.35-2.25Q20.7-2.25 21.75-2.38 22.8-2.5 23.9-2.95L23.9-2.95Q24.7-3.3 25.13-4.03 25.55-4.75 25.55-6.65L25.55-6.65 25.55-9.05Q25.55-11.25 25.28-12.23 25-13.2 24.1-13.5 23.2-13.8 21.4-13.85L21.4-13.85Q21.2-14.3 21.13-15 21.05-15.7 21.05-16.4L21.05-16.4Q22.1-16.35 23.93-16.3 25.75-16.25 27.3-16.25L27.3-16.25Q28.85-16.25 30.65-16.28 32.45-16.3 33.35-16.35L33.35-16.35Q33.35-15.8 33.3-15.1 33.25-14.4 33.05-13.85L33.05-13.85Q32.1-13.8 31.6-13.5 31.1-13.2 30.95-12.23 30.8-11.25 30.8-9.15L30.8-9.15 30.8-7.1Q30.8-5.9 30.93-5.03 31.05-4.15 31.45-3.3L31.45-3.3Q29.3-1.75 25.95-0.65 22.6 0.45 18.4 0.45ZM49.5-13.2L55-13.2 55-8.4Q55-5.8 55.27-4.58 55.55-3.35 56.4-2.93 57.25-2.5 59-2.25L59-2.25Q59.2-1.75 59.27-1.15 59.35-0.55 59.35 0.15L59.35 0.15Q57.65 0.1 55.8 0.05 53.95 0 52.35 0L52.35 0Q51.1 0 49.7 0.03 48.3 0.05 47.02 0.05 45.75 0.05 44.95 0.1L44.95 0.1Q44.95-0.55 45.02-1.15 45.1-1.75 45.25-2.25L45.25-2.25Q47.15-2.45 48.05-2.83 48.95-3.2 49.22-4.35 49.5-5.5 49.5-7.9L49.5-7.9 49.5-13.2ZM61.65-26.45L54.2-11.25 50.3-11.25 41.4-28.6Q40.6-30.2 39.82-30.85 39.05-31.5 37.75-31.55L37.75-31.55Q37.55-32.15 37.5-32.73 37.45-33.3 37.45-33.9L37.45-33.9Q38.2-33.9 39.17-33.88 40.15-33.85 41.17-33.83 42.2-33.8 43.15-33.8L43.15-33.8Q44.1-33.8 45.42-33.8 46.75-33.8 48.02-33.83 49.3-33.85 50.1-33.9L50.1-33.9Q50.1-33.25 50.05-32.75 50-32.25 49.85-31.65L49.85-31.65Q47.95-31.45 47.7-30.55 47.45-29.65 48.5-27.55L48.5-27.55Q49.75-25.1 51.22-21.95 52.7-18.8 54.15-15.45L54.15-15.45 53.8-15.45Q55.3-18.9 56.67-21.8 58.05-24.7 59.15-26.95L59.15-26.95Q60.4-29.45 60.05-30.38 59.7-31.3 57.75-31.55L57.75-31.55Q57.6-32.15 57.5-32.7 57.4-33.25 57.4-33.9L57.4-33.9Q58.35-33.85 59.77-33.83 61.2-33.8 62.35-33.8L62.35-33.8Q63.5-33.8 64.65-33.83 65.8-33.85 66.7-33.9L66.7-33.9Q66.7-33.3 66.62-32.77 66.55-32.25 66.45-31.65L66.45-31.65Q65.2-31.35 64.05-30.15 62.9-28.95 61.65-26.45L61.65-26.45ZM89.5 0.45L89.5 0.45 77.55-25.8 78.15-25.8 76.5-9.35Q76.25-6.55 76.45-5.08 76.65-3.6 77.45-3 78.25-2.4 79.7-2.25L79.7-2.25Q79.85-1.7 79.92-1 80-0.3 80 0.15L80 0.15Q78.85 0.05 77.32 0.03 75.8 0 74.6 0L74.6 0Q73.85 0 72.87 0.03 71.9 0.05 70.97 0.08 70.05 0.1 69.4 0.15L69.4 0.15Q69.4-0.3 69.45-1 69.5-1.7 69.7-2.25L69.7-2.25Q71-2.4 71.8-2.98 72.6-3.55 73.05-5.08 73.5-6.6 73.75-9.7L73.75-9.7 75.3-26.6Q75.45-28.5 75.2-29.58 74.95-30.65 74.17-31.1 73.4-31.55 72-31.55L72-31.55Q71.8-32.1 71.75-32.75 71.7-33.4 71.7-33.95L71.7-33.95Q72.25-33.9 73-33.88 73.75-33.85 74.55-33.83 75.35-33.8 76-33.8L76-33.8Q76.7-33.8 77.45-33.83 78.2-33.85 78.92-33.88 79.65-33.9 80.25-33.95L80.25-33.95 92.9-5.8 91.7-5.8 102.65-33.95Q103.3-33.9 104.07-33.88 104.85-33.85 105.62-33.83 106.4-33.8 107.05-33.8L107.05-33.8Q107.75-33.8 108.47-33.83 109.2-33.85 109.92-33.88 110.65-33.9 111.3-33.95L111.3-33.95Q111.3-33.35 111.25-32.73 111.2-32.1 111.05-31.55L111.05-31.55Q109.2-31.55 108.27-30.48 107.35-29.4 107.7-26.35L107.7-26.35 109.4-8.75Q109.7-6.2 110.07-4.85 110.45-3.5 111.17-2.98 111.9-2.45 113.1-2.3L113.1-2.3Q113.25-1.75 113.3-1.1 113.35-0.45 113.35 0.15L113.35 0.15Q112.8 0.1 111.97 0.08 111.15 0.05 110.2 0.03 109.25 0 108.37 0 107.5 0 106.8 0L106.8 0Q105.85 0 104.67 0.03 103.5 0.05 102.37 0.08 101.25 0.1 100.45 0.15L100.45 0.15Q100.45-0.4 100.52-1.05 100.6-1.7 100.75-2.25L100.75-2.25Q102.35-2.45 103.07-2.93 103.8-3.4 103.92-4.63 104.05-5.85 103.8-8.1L103.8-8.1 101.9-25.95 102.55-25.95 91.85 0.1Q91.35 0.3 90.75 0.38 90.15 0.45 89.5 0.45ZM127.49 0.15L127.49 0.15Q127.49-0.6 127.54-1.23 127.59-1.85 127.74-2.25L127.74-2.25Q129.09-2.35 129.84-2.78 130.59-3.2 130.92-4.25 131.24-5.3 131.24-7.3L131.24-7.3 131.24-27Q131.24-28.8 130.94-29.73 130.64-30.65 129.89-31.05 129.14-31.45 127.79-31.55L127.79-31.55Q127.64-32 127.59-32.65 127.54-33.3 127.54-33.95L127.54-33.95Q128.39-33.9 129.69-33.88 130.99-33.85 132.42-33.83 133.84-33.8 135.09-33.8L135.09-33.8Q136.44-33.8 137.92-33.85 139.39-33.9 140.89-33.9L140.89-33.9Q143.54-33.9 146.24-33.52 148.94-33.15 151.37-32.18 153.79-31.2 155.67-29.38 157.54-27.55 158.62-24.73 159.69-21.9 159.69-17.75L159.69-17.75Q159.69-13.7 158.69-10.8 157.69-7.9 156.04-5.95 154.39-4 152.34-2.8 150.29-1.6 148.17-1 146.04-0.4 144.12-0.2 142.19 0 140.84 0L140.84 0Q139.44 0 137.57 0 135.69 0 133.72 0.03 131.74 0.05 130.09 0.08 128.44 0.1 127.49 0.15ZM141.14-2.5L141.14-2.5Q143.79-2.5 146.07-3.15 148.34-3.8 150.09-5.43 151.84-7.05 152.82-9.88 153.79-12.7 153.79-17L153.79-17Q153.79-21 152.67-23.85 151.54-26.7 149.59-28.43 147.64-30.15 145.22-30.93 142.79-31.7 140.19-31.7L140.19-31.7Q139.14-31.7 137.92-31.53 136.69-31.35 136.29-31.05L136.29-31.05 136.74-32.5 136.74-7.3Q136.74-5.4 137.09-4.35 137.44-3.3 138.42-2.9 139.39-2.5 141.14-2.5ZM167.74-6.8L167.74-27Q167.74-28.8 167.44-29.73 167.14-30.65 166.41-31.05 165.69-31.45 164.34-31.55L164.34-31.55Q164.14-32 164.09-32.63 164.04-33.25 164.04-33.95L164.04-33.95Q164.99-33.9 166.06-33.88 167.14-33.85 168.31-33.83 169.49-33.8 170.54-33.8L170.54-33.8Q171.64-33.8 172.74-33.83 173.84-33.85 174.89-33.88 175.94-33.9 176.94-33.95L176.94-33.95Q176.94-33.25 176.89-32.63 176.84-32 176.69-31.55L176.69-31.55Q175.39-31.45 174.61-31.05 173.84-30.65 173.54-29.73 173.24-28.8 173.24-27L173.24-27 173.24-6.8Q173.24-5.05 173.54-4.1 173.84-3.15 174.61-2.75 175.39-2.35 176.69-2.25L176.69-2.25Q176.84-1.85 176.89-1.23 176.94-0.6 176.94 0.15L176.94 0.15Q175.54 0.05 173.89 0.03 172.24 0 170.64 0L170.64 0Q168.99 0 167.19 0.03 165.39 0.05 164.04 0.15L164.04 0.15Q164.04-0.6 164.11-1.23 164.19-1.85 164.34-2.25L164.34-2.25Q165.69-2.35 166.41-2.75 167.14-3.15 167.44-4.1 167.74-5.05 167.74-6.8L167.74-6.8ZM197.39 0.45L197.39 0.45Q192.64 0.45 189.04-1.78 185.44-4 183.36-7.98 181.29-11.95 181.29-17.15L181.29-17.15Q181.29-21.45 182.69-24.65 184.09-27.85 186.46-30 188.84-32.15 191.84-33.2 194.84-34.25 198.09-34.25L198.09-34.25Q201.14-34.25 203.79-33.6 206.44-32.95 209.14-31.65L209.14-31.65Q208.79-29.9 208.69-27.93 208.59-25.95 208.59-23.9L208.59-23.9Q207.94-23.65 207.19-23.53 206.44-23.4 205.59-23.4L205.59-23.4Q205.49-26.8 204.59-28.65 203.69-30.5 202.11-31.2 200.54-31.9 198.44-31.9L198.44-31.9Q195.49-31.9 193.36-30.78 191.24-29.65 189.91-27.78 188.59-25.9 187.96-23.5 187.34-21.1 187.34-18.5L187.34-18.5Q187.34-14.1 188.76-10.55 190.19-7 192.94-4.93 195.69-2.85 199.64-2.85L199.64-2.85Q201.94-2.85 204.34-3.6 206.74-4.35 208.79-5.65L208.79-5.65Q209.14-5.4 209.41-4.88 209.69-4.35 209.79-3.95L209.79-3.95Q206.99-1.75 204.11-0.65 201.24 0.45 197.39 0.45ZM232.48-31.35L222.38-31.35Q220.08-31.35 218.86-30.6 217.63-29.85 217.06-28.48 216.48-27.1 216.13-25.2L216.13-25.2Q215.43-25.2 214.63-25.3 213.83-25.4 213.28-25.7L213.28-25.7Q213.68-27.8 213.91-30 214.13-32.2 214.13-33.95L214.13-33.95Q215.68-33.9 217.71-33.85 219.73-33.8 222.16-33.8 224.58-33.8 227.33-33.8L227.33-33.8Q230.08-33.8 232.53-33.8 234.98-33.8 237.06-33.85 239.13-33.9 240.58-33.95L240.58-33.95Q240.53-32.1 240.66-30.1 240.78-28.1 241.03-25.7L241.03-25.7Q240.43-25.45 239.71-25.3 238.98-25.15 238.13-25.2L238.13-25.2Q237.98-28.25 236.66-29.8 235.33-31.35 232.48-31.35L232.48-31.35ZM224.53-6.8L224.53-32.4 230.08-32.4 230.08-6.8Q230.08-5.05 230.38-4.1 230.68-3.15 231.56-2.75 232.43-2.35 234.13-2.25L234.13-2.25Q234.28-1.85 234.36-1.23 234.43-0.6 234.43 0.15L234.43 0.15Q232.83 0.05 231.03 0.03 229.23 0 227.38 0L227.38 0Q226.13 0 224.81 0.03 223.48 0.05 222.26 0.08 221.03 0.1 220.03 0.15L220.03 0.15Q220.03-0.6 220.11-1.23 220.18-1.85 220.33-2.25L220.33-2.25Q222.03-2.35 222.93-2.75 223.83-3.15 224.18-4.1 224.53-5.05 224.53-6.8L224.53-6.8ZM248.63-6.8L248.63-27Q248.63-28.8 248.33-29.73 248.03-30.65 247.31-31.05 246.58-31.45 245.23-31.55L245.23-31.55Q245.03-32 244.98-32.63 244.93-33.25 244.93-33.95L244.93-33.95Q245.88-33.9 246.96-33.88 248.03-33.85 249.21-33.83 250.38-33.8 251.43-33.8L251.43-33.8Q252.53-33.8 253.63-33.83 254.73-33.85 255.78-33.88 256.83-33.9 257.83-33.95L257.83-33.95Q257.83-33.25 257.78-32.63 257.73-32 257.58-31.55L257.58-31.55Q256.28-31.45 255.51-31.05 254.73-30.65 254.43-29.73 254.13-28.8 254.13-27L254.13-27 254.13-6.8Q254.13-5.05 254.43-4.1 254.73-3.15 255.51-2.75 256.28-2.35 257.58-2.25L257.58-2.25Q257.73-1.85 257.78-1.23 257.83-0.6 257.83 0.15L257.83 0.15Q256.43 0.05 254.78 0.03 253.13 0 251.53 0L251.53 0Q249.88 0 248.08 0.03 246.28 0.05 244.93 0.15L244.93 0.15Q244.93-0.6 245.01-1.23 245.08-1.85 245.23-2.25L245.23-2.25Q246.58-2.35 247.31-2.75 248.03-3.15 248.33-4.1 248.63-5.05 248.63-6.8L248.63-6.8ZM278.78 0.45L278.78 0.45Q273.78 0.45 270.05-1.83 266.33-4.1 264.25-8.05 262.18-12 262.18-17L262.18-17Q262.18-20.9 263.45-24.05 264.73-27.2 266.98-29.48 269.23-31.75 272.25-33 275.28-34.25 278.78-34.25L278.78-34.25Q283.68-34.25 287.43-32.1 291.18-29.95 293.33-26.1 295.48-22.25 295.48-17.1L295.48-17.1Q295.48-13.35 294.28-10.15 293.08-6.95 290.83-4.58 288.58-2.2 285.53-0.88 282.48 0.45 278.78 0.45ZM279.73-2.25L279.73-2.25Q282.83-2.25 285-4.03 287.18-5.8 288.35-8.9 289.53-12 289.53-15.85L289.53-15.85Q289.53-20.25 288-23.85 286.48-27.45 283.85-29.55 281.23-31.65 277.83-31.65L277.83-31.65Q275.03-31.65 272.83-30 270.63-28.35 269.38-25.35 268.13-22.35 268.13-18.35L268.13-18.35Q268.13-15.2 268.88-12.3 269.63-9.4 271.1-7.13 272.58-4.85 274.73-3.55 276.88-2.25 279.73-2.25ZM326.68-8.5L326.33 0.3 303.23-30Q302.58-30.85 301.93-31.13 301.28-31.4 299.98-31.55L299.98-31.55Q299.83-32.1 299.78-32.77 299.73-33.45 299.73-33.95L299.73-33.95Q300.23-33.9 300.95-33.88 301.68-33.85 302.45-33.83 303.23-33.8 303.88-33.8L303.88-33.8Q304.88-33.8 305.88-33.85 306.88-33.9 307.58-33.95L307.58-33.95 326.68-8.5ZM299.73 0.15L299.73 0.15Q299.73-0.6 299.78-1.18 299.83-1.75 299.98-2.25L299.98-2.25Q301.38-2.3 302.13-2.95 302.88-3.6 303.2-5.2 303.53-6.8 303.53-9.6L303.53-9.6 303.53-30.55 306.28-30.5 306.28-9.6Q306.28-6.8 306.58-5.2 306.88-3.6 307.63-2.95 308.38-2.3 309.78-2.25L309.78-2.25Q309.98-1.75 310.03-1.18 310.08-0.6 310.08 0.15L310.08 0.15Q309.33 0.1 308.4 0.08 307.48 0.05 306.58 0.03 305.68 0 304.93 0L304.93 0Q304.23 0 303.2 0.03 302.18 0.05 301.25 0.08 300.33 0.1 299.73 0.15ZM326.33 0.3L326.33 0.3 326.13-5.35 326.13-24.4Q326.13-27.2 325.83-28.7 325.53-30.2 324.75-30.85 323.98-31.5 322.58-31.55L322.58-31.55Q322.43-32.4 322.35-32.93 322.28-33.45 322.28-33.95L322.28-33.95Q323.03-33.9 323.9-33.88 324.78-33.85 325.68-33.83 326.58-33.8 327.28-33.8L327.28-33.8Q328.38-33.8 329.75-33.85 331.13-33.9 332.13-33.95L332.13-33.95Q332.13-33.35 332.08-32.75 332.03-32.15 331.88-31.55L331.88-31.55Q330.73-31.5 330.08-30.88 329.43-30.25 329.15-28.73 328.88-27.2 328.88-24.4L328.88-24.4 328.88 0Q328.38 0.15 327.7 0.23 327.03 0.3 326.33 0.3ZM352.22-34.1L352.22-34.1 363.97-7.25Q364.87-5.3 365.45-4.25 366.02-3.2 366.6-2.8 367.17-2.4 367.92-2.25L367.92-2.25Q368.12-1.6 368.17-1.07 368.22-0.55 368.22 0.15L368.22 0.15Q367.67 0.1 366.55 0.08 365.42 0.05 364.22 0.03 363.02 0 362.22 0L362.22 0Q361.62 0 360.75 0.03 359.87 0.05 358.95 0.08 358.02 0.1 357.27 0.13 356.52 0.15 356.07 0.15L356.07 0.15Q356.07-0.55 356.15-1.18 356.22-1.8 356.42-2.25L356.42-2.25Q358.42-2.55 358.77-3.25 359.12-3.95 358.17-6.15L358.17-6.15 351.77-21.15Q350.97-22.95 350.42-24.38 349.87-25.8 349.22-27.7L349.22-27.7 349.72-27.7Q349.12-25.75 348.6-24.23 348.07-22.7 347.52-21.2L347.52-21.2 342.22-7.4Q341.22-4.75 341.62-3.6 342.02-2.45 344.02-2.25L344.02-2.25Q344.22-1.75 344.3-1.15 344.37-0.55 344.37 0.15L344.37 0.15Q343.82 0.1 342.97 0.08 342.12 0.05 341.22 0.03 340.32 0 339.47 0L339.47 0Q338.22 0 337.07 0.05 335.92 0.1 335.22 0.15L335.22 0.15Q335.22-0.45 335.3-1.07 335.37-1.7 335.57-2.25L335.57-2.25Q336.47-2.4 337.07-2.9 337.67-3.4 338.25-4.53 338.82-5.65 339.57-7.6L339.57-7.6 349.97-33.9Q350.52-34 351.02-34.05 351.52-34.1 352.22-34.1ZM343.42-13L356.17-13 356.72-10.6Q353.37-10.6 349.6-10.53 345.82-10.45 342.62-10.3L342.62-10.3 343.42-13ZM394.02 0.45L394.02 0.45Q393.12-1.15 392.5-2.27 391.87-3.4 391.37-4.45 390.87-5.5 390.22-6.65L390.22-6.65Q389.32-8.45 388.47-9.85 387.62-11.25 386.52-12.63 385.42-14 383.77-15.65L383.77-15.65 385.32-15.05Q383.97-15 382.9-15 381.82-15 380.77-15.05L380.77-15.05 380.82-17.65Q381.57-17.55 382.12-17.5 382.67-17.45 383.27-17.45L383.27-17.45Q385.82-17.45 387.9-18.23 389.97-19 391.2-20.6 392.42-22.2 392.42-24.75L392.42-24.75Q392.42-27.75 390.62-29.6 388.82-31.45 384.62-31.45L384.62-31.45Q383.57-31.45 382.72-31.35 381.87-31.25 380.92-31L380.92-31 381.17-31.8 381.17-6.9Q381.17-5.1 381.47-4.1 381.77-3.1 382.47-2.73 383.17-2.35 384.37-2.25L384.37-2.25Q384.52-1.8 384.57-1.15 384.62-0.5 384.62 0.15L384.62 0.15Q383.57 0.05 382.37 0.03 381.17 0 380.07 0 378.97 0 378.22 0L378.22 0Q376.82 0 375.02 0.03 373.22 0.05 371.97 0.15L371.97 0.15Q371.97-0.5 372.02-1.13 372.07-1.75 372.22-2.25L372.22-2.25Q373.57-2.35 374.32-2.75 375.07-3.15 375.37-4.1 375.67-5.05 375.67-6.8L375.67-6.8 375.67-27Q375.67-28.8 375.37-29.75 375.07-30.7 374.32-31.1 373.57-31.5 372.22-31.55L372.22-31.55Q372.07-32.1 372.02-32.73 371.97-33.35 371.97-33.9L371.97-33.9Q372.82-33.85 374.65-33.83 376.47-33.8 378.37-33.8L378.37-33.8Q380.32-33.8 382.55-33.85 384.77-33.9 387.02-33.9L387.02-33.9Q390.92-33.9 393.37-32.77 395.82-31.65 397-29.73 398.17-27.8 398.17-25.35L398.17-25.35Q398.17-22.9 397.05-20.95 395.92-19 393.9-17.73 391.87-16.45 389.12-15.9L389.12-15.9 389.52-16.5Q390.92-15.2 391.9-14 392.87-12.8 393.9-11.18 394.92-9.55 396.37-7.05L396.37-7.05Q397.32-5.35 398.12-4.38 398.92-3.4 399.95-2.95 400.97-2.5 402.67-2.4L402.67-2.4Q402.67-1.75 402.62-1.18 402.57-0.6 402.42 0L402.42 0Q400.22 0 398.02 0.08 395.82 0.15 394.02 0.45ZM417.02-13.2L422.52-13.2 422.52-8.4Q422.52-5.8 422.79-4.58 423.07-3.35 423.92-2.93 424.77-2.5 426.52-2.25L426.52-2.25Q426.72-1.75 426.79-1.15 426.87-0.55 426.87 0.15L426.87 0.15Q425.17 0.1 423.32 0.05 421.47 0 419.87 0L419.87 0Q418.62 0 417.22 0.03 415.82 0.05 414.54 0.05 413.27 0.05 412.47 0.1L412.47 0.1Q412.47-0.55 412.54-1.15 412.62-1.75 412.77-2.25L412.77-2.25Q414.67-2.45 415.57-2.83 416.47-3.2 416.74-4.35 417.02-5.5 417.02-7.9L417.02-7.9 417.02-13.2ZM429.17-26.45L421.72-11.25 417.82-11.25 408.92-28.6Q408.12-30.2 407.34-30.85 406.57-31.5 405.27-31.55L405.27-31.55Q405.07-32.15 405.02-32.73 404.97-33.3 404.97-33.9L404.97-33.9Q405.72-33.9 406.69-33.88 407.67-33.85 408.69-33.83 409.72-33.8 410.67-33.8L410.67-33.8Q411.62-33.8 412.94-33.8 414.27-33.8 415.54-33.83 416.82-33.85 417.62-33.9L417.62-33.9Q417.62-33.25 417.57-32.75 417.52-32.25 417.37-31.65L417.37-31.65Q415.47-31.45 415.22-30.55 414.97-29.65 416.02-27.55L416.02-27.55Q417.27-25.1 418.74-21.95 420.22-18.8 421.67-15.45L421.67-15.45 421.32-15.45Q422.82-18.9 424.19-21.8 425.57-24.7 426.67-26.95L426.67-26.95Q427.92-29.45 427.57-30.38 427.22-31.3 425.27-31.55L425.27-31.55Q425.12-32.15 425.02-32.7 424.92-33.25 424.92-33.9L424.92-33.9Q425.87-33.85 427.29-33.83 428.72-33.8 429.87-33.8L429.87-33.8Q431.02-33.8 432.17-33.83 433.32-33.85 434.22-33.9L434.22-33.9Q434.22-33.3 434.14-32.77 434.07-32.25 433.97-31.65L433.97-31.65Q432.72-31.35 431.57-30.15 430.42-28.95 429.17-26.45L429.17-26.45Z" opacity="1" transform="matrix(1,0,0,1,0,0)" fill="#080000" class="undefined-text-0" data-fill-palette-color="primary" id="text-0"></path></svg></g></svg></g></svg></g></svg></g></svg></g></svg></g></svg></g></svg><rect width="395.52" height="247.2" fill="none" stroke="none" visibility="hidden"></rect></g></svg></g></svg>