<?xml version="1.0" encoding="utf-8"?>
<!-- Generator: Adobe Illustrator 23.0.1, SVG Export Plug-In . SVG Version: 6.00 Build 0)  -->
<svg version="1.1" id="Layer_1" xmlns="http://www.w3.org/2000/svg" xmlns:xlink="http://www.w3.org/1999/xlink" x="0px" y="0px"
	 viewBox="0 0 261.9 100.7" style="enable-background:new 0 0 261.9 100.7;" xml:space="preserve">
<style type="text/css">
	.st0{fill:#FFFFFF;}
	.st1{fill:#047DAF;}
</style>
<g transform="matrix(2.0718781466159326,0,0,2.0718781466159326,17.65877770420351,148.06469014716973)">
	<path class="st0" d="M-0.8-36.4L-0.8-36.4L-0.8-36.4c0,0.3,0,0.5,0,0.8l0,0l0,0c0,0.2,0,0.4-0.1,0.6l0,0l0,0c0,0.2-0.1,0.4-0.1,0.5
		l0,0l0,0c0,0.1-0.1,0.3-0.2,0.4l0,0l0,0C-1.3-34-1.4-34-1.5-33.9l0,0l0,0c-0.1,0.1-0.2,0.1-0.4,0.2l0,0l0,0
		c-0.2,0.1-0.3,0.1-0.4,0.1l0,0l0,0c-0.1,0-0.3,0-0.6,0.1l0,0l0,0c-0.2,0-0.5,0-0.7,0l0,0l0,0c-0.2,0-0.5,0-0.8,0l0,0H-8v-10.2h3.9
		l0,0c0.5,0,1,0,1.3,0.1l0,0l0,0c0.3,0.1,0.6,0.2,0.9,0.3l0,0l0,0c0.3,0.1,0.4,0.3,0.6,0.6l0,0l0,0c0.1,0.2,0.2,0.6,0.2,1l0,0l0,0.7
		l0,0c0,0.3,0,0.6,0,0.8l0,0l0,0c0,0.2-0.1,0.4-0.1,0.5l0,0l0,0c-0.1,0.2-0.1,0.3-0.3,0.4l0,0l0,0c-0.1,0.1-0.3,0.2-0.4,0.2l0,0l0,0
		C-2.2-39-2.4-39-2.6-38.9l0,0l0,0c0.3,0,0.6,0.1,0.8,0.2l0,0l0,0c0.2,0.1,0.4,0.2,0.5,0.4l0,0l0,0c0.1,0.1,0.2,0.3,0.3,0.6l0,0l0,0
		c0.1,0.2,0.1,0.4,0.1,0.6l0,0l0,0C-0.8-36.9-0.8-36.7-0.8-36.4z M-2.5-40.2v-1.1l0,0c0,0,0,0,0,0l0,0l0,0c0-0.2,0-0.3,0-0.4l0,0
		l0,0c0-0.1,0-0.2,0-0.3l0,0l0,0c0-0.1-0.1-0.2-0.1-0.2l0,0l0,0c0,0-0.1-0.1-0.2-0.1l0,0l0,0c-0.1-0.1-0.2-0.1-0.3-0.1l0,0l0,0
		c-0.1,0-0.2,0-0.4,0l0,0l0,0c-0.2,0-0.4,0-0.5,0l0,0l0,0c-0.2,0-0.4,0-0.7,0l0,0h-1.8v3.3h1.4l0,0c0.6,0,1.1,0,1.4,0l0,0l0,0
		c0.4,0,0.6-0.1,0.8-0.2l0,0l0,0c0.2-0.1,0.3-0.2,0.4-0.3l0,0l0,0C-2.6-39.9-2.5-40.1-2.5-40.2L-2.5-40.2z M-2.2-35.8l0-0.9l0,0
		c0-0.5,0-0.9-0.1-1l0,0l0,0c-0.1-0.2-0.2-0.4-0.5-0.5l0,0l0,0c-0.3-0.1-1-0.2-2.1-0.2l0,0l0,0c-0.1,0-0.2,0-0.2,0l0,0h-1.6v4H-4
		l0,0c0.5,0,0.9,0,1.2-0.1l0,0l0,0c0.3-0.1,0.4-0.2,0.5-0.4l0,0l0,0C-2.2-35.2-2.1-35.5-2.2-35.8L-2.2-35.8z M2.4-41v7.5H1V-41H2.4z
		 M1-43.9h1.3v1.2H1V-43.9z M10.5-37.6v4.2H9.1V-38l0,0c0-0.3,0-0.5,0-0.7l0,0l0,0c0-0.2,0-0.3,0-0.5l0,0l0,0c0-0.2,0-0.3-0.1-0.4
		l0,0l0,0c0-0.1-0.1-0.2-0.1-0.3l0,0l0,0c0-0.1-0.1-0.1-0.1-0.2l0,0l0,0c0,0-0.1-0.1-0.2-0.1l0,0l0,0c-0.1,0-0.2,0-0.3,0l0,0l0,0
		c-0.1,0-0.2,0-0.4,0l0,0l0,0c-0.3,0-0.6,0-0.9,0.1l0,0l0,0c-0.2,0-0.4,0.1-0.6,0.2l0,0l0,0c-0.2,0.1-0.3,0.2-0.4,0.3l0,0l0,0
		c-0.1,0.1-0.1,0.3-0.2,0.4l0,0l0,0c0,0.1-0.1,0.3-0.1,0.5l0,0l0,0c0,0.1,0,0.3,0,0.6l0,0l0,0c0,0.3,0,0.5,0,0.7l0,0v4H4.5V-41h1.2
		l0.1,0.8l0,0c0.1-0.4,0.4-0.6,0.8-0.8l0,0l0,0c0.4-0.2,0.9-0.2,1.5-0.2l0,0l0,0c0.3,0,0.5,0,0.7,0l0,0l0,0C9-41.1,9.2-41,9.4-41
		l0,0l0,0c0.2,0.1,0.3,0.2,0.4,0.3l0,0l0,0c0.1,0.1,0.2,0.2,0.3,0.4l0,0l0,0c0.1,0.2,0.1,0.3,0.2,0.5l0,0l0,0
		c0.1,0.2,0.1,0.4,0.1,0.6l0,0l0,0c0,0.2,0,0.5,0,0.7l0,0l0,0C10.5-38.3,10.5-38,10.5-37.6L10.5-37.6z M18-38.4v5H17l-0.2-1.1l0,0
		c-0.1,0.5-0.4,0.8-0.7,0.9l0,0l0,0c-0.4,0.2-0.9,0.2-1.6,0.2l0,0l0,0c-0.5,0-0.8,0-1.1-0.1l0,0l0,0c-0.3-0.1-0.5-0.2-0.7-0.5l0,0
		l0,0c-0.2-0.2-0.3-0.5-0.4-0.8l0,0l0,0c-0.1-0.3-0.1-0.7-0.1-1.2l0,0l0,0c0-0.2,0-0.4,0.1-0.6l0,0l0,0c0.1-0.2,0.2-0.3,0.3-0.4l0,0
		l0,0c0.1-0.1,0.3-0.2,0.5-0.3l0,0l0,0c0.2-0.1,0.4-0.2,0.7-0.2l0,0l0,0c0.2,0,0.5-0.1,0.8-0.1l0,0l0,0c0.3,0,0.7,0,1-0.1l0,0l0,0
		c0.3,0,0.7,0,1.1,0l0,0v-2l0,0c0-0.2-0.1-0.4-0.3-0.5l0,0l0,0c-0.2-0.1-0.6-0.1-1.2-0.1l0,0l0,0c-0.4,0-0.7,0-0.9,0l0,0l0,0
		c-0.2,0-0.3,0.1-0.5,0.2l0,0l0,0c-0.1,0.1-0.2,0.2-0.2,0.3l0,0l0,0c0,0.1,0,0.2,0,0.5l0,0l0,0c0,0.1,0,0.2,0,0.2l0,0l-1.1,0l0,0
		c0-0.1,0-0.2,0-0.3l0,0l0,0c0-0.3,0-0.6,0.1-0.8l0,0l0,0c0.1-0.2,0.2-0.4,0.4-0.5l0,0l0,0c0.1-0.1,0.3-0.2,0.6-0.3l0,0l0,0
		c0.2-0.1,0.5-0.1,0.7-0.1l0,0l0,0c0.2,0,0.5,0,0.9,0l0,0l0,0c0.5,0,1,0,1.3,0.1l0,0l0,0c0.3,0.1,0.6,0.2,0.8,0.5l0,0l0,0
		c0.2,0.2,0.4,0.5,0.5,0.8l0,0l0,0C18-39.4,18-39,18-38.4L18-38.4z M16.7-35.6L16.7-35.6v-1.2l0,0c-0.9,0-1.6,0-2.1,0.1l0,0l0,0
		c-0.5,0.1-0.8,0.2-1,0.3l0,0l0,0c-0.2,0.1-0.2,0.3-0.2,0.5l0,0l0,0c0,0,0,0,0,0l0,0l0,0c0,0.7,0.1,1.1,0.2,1.3l0,0l0,0
		c0.1,0.2,0.5,0.3,1,0.3l0,0l0,0c0.5,0,0.9-0.1,1.2-0.2l0,0l0,0c0.3-0.1,0.5-0.3,0.7-0.5l0,0l0,0C16.6-35.1,16.7-35.3,16.7-35.6z
		 M23.5-41.1L23.5-41.1L23.4-40l0,0c-0.2,0-0.3,0-0.5,0l0,0l0,0c-0.3,0-0.6,0-0.8,0.1l0,0l0,0c-0.2,0.1-0.4,0.2-0.5,0.3l0,0l0,0
		c-0.1,0.2-0.2,0.3-0.2,0.5l0,0l0,0c0,0.2,0,0.5,0,0.8l0,0l0,0c0,0.2,0,0.5,0,0.8l0,0l0,0c0,0.4,0,0.6,0,0.8l0,0v3.2h-1.4V-41h1.2
		l0.1,0.8l0,0c0.1-0.3,0.4-0.6,0.6-0.8l0,0l0,0c0.3-0.2,0.6-0.3,1-0.3l0,0l0,0C23.3-41.1,23.4-41.1,23.5-41.1z M29.4-41h1.4
		l-2.4,7.1l0,0c-0.1,0.2-0.1,0.4-0.2,0.6l0,0l0,0c-0.1,0.2-0.1,0.4-0.2,0.6l0,0l0,0c0,0.2-0.1,0.3-0.2,0.5l0,0l0,0
		c-0.1,0.2-0.1,0.3-0.2,0.4l0,0l0,0c-0.1,0.1-0.2,0.2-0.3,0.3l0,0l0,0c-0.1,0.1-0.3,0.2-0.4,0.2l0,0l0,0c-0.2,0-0.3,0.1-0.5,0.1l0,0
		l0,0c-0.5,0-1,0-1.5-0.1l0,0l0.2-1l0,0c0.1,0,0.2,0,0.3,0.1l0,0l0,0c0.1,0,0.3,0,0.4,0.1l0,0l0,0c0.1,0,0.2,0,0.3,0l0,0l0,0
		c0.3,0,0.5-0.1,0.7-0.3l0,0l0,0c0.2-0.2,0.2-0.6,0.2-1.1l0,0L24.3-41h1.4l1.4,3.8l0,0c0.2,0.7,0.5,1.3,0.7,2l0,0l0,0
		c0.1-0.6,0.4-1.3,0.7-2.3l0,0L29.4-41z M41.1-43.6h1.4v6.4l0,0c0,0.5,0,1-0.1,1.4l0,0l0,0c0,0.4-0.1,0.7-0.3,1l0,0l0,0
		c-0.1,0.3-0.3,0.6-0.5,0.7l0,0l0,0c-0.2,0.2-0.4,0.3-0.7,0.5l0,0l0,0c-0.3,0.1-0.6,0.2-1,0.3l0,0l0,0c-0.4,0-0.8,0.1-1.3,0.1l0,0
		l0,0c-0.5,0-0.9,0-1.3-0.1l0,0l0,0c-0.4,0-0.7-0.1-1-0.2l0,0l0,0c-0.3-0.1-0.5-0.3-0.7-0.4l0,0l0,0c-0.2-0.2-0.3-0.4-0.5-0.7l0,0
		l0,0c-0.1-0.3-0.2-0.6-0.3-1l0,0l0,0c-0.1-0.4-0.1-0.9-0.1-1.5l0,0v-6.4h1.4v6.6l0,0c0,0.4,0,0.7,0,0.8l0,0l0,0c0,0.2,0,0.4,0,0.6
		l0,0l0,0c0,0.2,0,0.4,0.1,0.5l0,0l0,0c0,0.1,0.1,0.2,0.2,0.3l0,0l0,0c0.1,0.1,0.2,0.2,0.3,0.3l0,0l0,0c0.1,0,0.3,0.1,0.4,0.1l0,0
		l0,0c0.2,0,0.4,0.1,0.6,0.1l0,0l0,0c0.2,0,0.5,0,0.8,0l0,0l0,0c0.4,0,0.7,0,1,0l0,0l0,0c0.3,0,0.5-0.1,0.7-0.1l0,0l0,0
		c0.2-0.1,0.3-0.1,0.4-0.2l0,0l0,0c0.1-0.1,0.2-0.2,0.2-0.4l0,0l0,0c0.1-0.2,0.1-0.4,0.1-0.5l0,0l0,0c0-0.2,0-0.4,0-0.7l0,0
		L41.1-43.6z M50.8-37.2L50.8-37.2L50.8-37.2c0,0.4,0,0.8,0,1.1l0,0l0,0c0,0.3-0.1,0.6-0.1,0.9l0,0l0,0c0,0.3-0.1,0.5-0.2,0.7l0,0
		l0,0c-0.1,0.2-0.2,0.4-0.3,0.5l0,0l0,0c-0.1,0.2-0.3,0.3-0.5,0.4l0,0l0,0c-0.2,0.1-0.4,0.2-0.7,0.2l0,0l0,0c-0.3,0-0.6,0.1-0.9,0.1
		l0,0l0,0c-1.2,0-1.9-0.3-2.1-0.8l0,0v3.2l-1.3,0.1V-41h1.2l0.1,0.8l0,0c0.3-0.7,1-1,2.2-1l0,0l0,0c0.2,0,0.5,0,0.7,0l0,0l0,0
		c0.2,0,0.4,0.1,0.5,0.1l0,0l0,0c0.2,0.1,0.3,0.1,0.4,0.2l0,0l0,0c0.1,0.1,0.2,0.2,0.3,0.3l0,0l0,0c0.1,0.1,0.2,0.2,0.3,0.3l0,0l0,0
		c0.1,0.1,0.1,0.3,0.2,0.4l0,0l0,0c0,0.2,0.1,0.3,0.1,0.5l0,0l0,0c0,0.2,0.1,0.4,0.1,0.6l0,0l0,0c0,0.2,0,0.5,0,0.7l0,0l0,0
		C50.8-37.8,50.8-37.5,50.8-37.2z M49.4-37.6L49.4-37.6L49.4-37.6c0-0.9,0-1.5,0-1.8l0,0l0,0c0-0.3-0.1-0.5-0.4-0.6l0,0l0,0
		c-0.2-0.1-0.7-0.2-1.3-0.2l0,0l0,0c-0.8,0-1.3,0.1-1.6,0.4l0,0l0,0c-0.1,0.2-0.2,0.7-0.2,1.6l0,0l0,0c0,0.2,0,0.5,0,0.8l0,0l0,0
		c0,0.4,0,0.6,0,0.8l0,0l0,0c0,0.2,0,0.4,0,0.6l0,0l0,0c0,0.3,0,0.4,0,0.5l0,0l0,0c0,0.3,0,0.5,0.1,0.7l0,0l0,0
		c0.1,0.2,0.3,0.3,0.5,0.4l0,0l0,0c0.3,0.1,0.6,0.1,1.1,0.1l0,0l0,0c0.7,0,1.1-0.1,1.3-0.2l0,0l0,0c0.3-0.1,0.4-0.7,0.4-1.8l0,0l0,0
		c0-0.2,0-0.4,0-0.7l0,0l0,0C49.4-37.3,49.4-37.5,49.4-37.6z M54.1-43.7v10.3h-1.3v-10.2L54.1-43.7z M59.2-34.3L59.2-34.3L59.2-34.3
		c0.6,0,1.1-0.1,1.3-0.1l0,0l0,0c0.3-0.1,0.4-0.3,0.4-0.5l0,0l0,0c0.1-0.7,0.1-1.4,0.1-2.3l0,0l0,0c0-0.3,0-0.7,0-1.2l0,0l0,0
		c0-0.5,0-0.9,0-1.2l0,0l0,0c0-0.1,0-0.1,0-0.2l0,0l0,0c0-0.1-0.1-0.1-0.1-0.2l0,0l0,0c-0.1,0-0.1-0.1-0.2-0.1l0,0l0,0
		c-0.1,0-0.1-0.1-0.2-0.1l0,0l0,0c-0.1,0-0.2,0-0.3,0l0,0l0,0c-0.1,0-0.2,0-0.3,0l0,0l0,0c-0.1,0-0.2,0-0.3,0l0,0l0,0
		c-0.1,0-0.2,0-0.3,0l0,0l0,0c-0.1,0-0.2,0-0.3,0l0,0l0,0c-0.1,0-0.2,0-0.3,0l0,0l0,0c-0.1,0-0.2,0-0.3,0l0,0l0,0
		c-0.1,0-0.2,0-0.3,0l0,0l0,0c-0.1,0-0.2,0-0.2,0.1l0,0l0,0c-0.1,0-0.1,0.1-0.2,0.1l0,0l0,0c-0.1,0-0.1,0.1-0.1,0.2l0,0l0,0
		c0,0.1,0,0.1,0,0.2l0,0l0,0c0,0.3,0,0.6,0,1.2l0,0l0,0c0,0.5,0,0.9,0,1.2l0,0l0,0c0,0.9,0,1.6,0.1,2.3l0,0l0,0
		c0,0.2,0.1,0.4,0.4,0.5l0,0l0,0C58.1-34.3,58.5-34.3,59.2-34.3z M59.2-33.4L59.2-33.4L59.2-33.4c-0.5,0-0.9,0-1.3-0.1l0,0l0,0
		c-0.3,0-0.6-0.1-0.9-0.3l0,0l0,0c-0.2-0.1-0.4-0.3-0.6-0.4l0,0l0,0c-0.1-0.2-0.2-0.4-0.3-0.8l0,0l0,0c-0.1-0.3-0.1-0.7-0.1-1l0,0
		l0,0c0-0.3,0-0.8,0-1.4l0,0l0,0c0-0.4,0-0.8,0-1.1l0,0l0,0c0-0.3,0-0.6,0.1-0.9l0,0l0,0c0-0.3,0.1-0.5,0.2-0.7l0,0l0,0
		c0.1-0.2,0.1-0.3,0.3-0.5l0,0l0,0c0.1-0.2,0.3-0.3,0.4-0.4l0,0l0,0c0.1-0.1,0.3-0.2,0.5-0.2l0,0l0,0c0.2-0.1,0.5-0.1,0.7-0.1l0,0
		l0,0c0.3,0,0.6,0,0.9,0l0,0l0,0c0.4,0,0.7,0,1,0l0,0l0,0c0.3,0,0.5,0.1,0.7,0.1l0,0l0,0c0.2,0.1,0.4,0.1,0.5,0.2l0,0l0,0
		c0.1,0.1,0.3,0.2,0.4,0.4l0,0l0,0c0.1,0.2,0.2,0.3,0.3,0.5l0,0l0,0c0.1,0.2,0.1,0.4,0.2,0.7l0,0l0,0c0,0.3,0.1,0.6,0.1,0.9l0,0l0,0
		c0,0.3,0,0.7,0,1.1l0,0l0,0c0,0.6,0,1,0,1.4l0,0l0,0c0,0.3-0.1,0.7-0.1,1l0,0l0,0c-0.1,0.3-0.2,0.6-0.3,0.8l0,0l0,0
		c-0.1,0.2-0.3,0.3-0.6,0.4l0,0l0,0c-0.2,0.1-0.5,0.2-0.9,0.3l0,0l0,0C60.1-33.4,59.7-33.4,59.2-33.4z M69.6-38.4v5h-1.1l-0.2-1.1
		l0,0c-0.1,0.5-0.4,0.8-0.7,0.9l0,0l0,0c-0.4,0.2-0.9,0.2-1.6,0.2l0,0l0,0c-0.5,0-0.8,0-1.1-0.1l0,0l0,0c-0.3-0.1-0.5-0.2-0.7-0.5
		l0,0l0,0c-0.2-0.2-0.3-0.5-0.4-0.8l0,0l0,0c-0.1-0.3-0.1-0.7-0.1-1.2l0,0l0,0c0-0.2,0-0.4,0.1-0.6l0,0l0,0c0.1-0.2,0.2-0.3,0.3-0.4
		l0,0l0,0c0.1-0.1,0.3-0.2,0.5-0.3l0,0l0,0c0.2-0.1,0.4-0.2,0.7-0.2l0,0l0,0c0.2,0,0.5-0.1,0.8-0.1l0,0l0,0c0.3,0,0.7,0,1-0.1l0,0
		l0,0c0.3,0,0.7,0,1.1,0l0,0v-2l0,0c0-0.2-0.1-0.4-0.3-0.5l0,0l0,0c-0.2-0.1-0.6-0.1-1.2-0.1l0,0l0,0c-0.4,0-0.7,0-0.9,0l0,0l0,0
		c-0.2,0-0.3,0.1-0.4,0.2l0,0l0,0c-0.1,0.1-0.2,0.2-0.2,0.3l0,0l0,0c0,0.1,0,0.2,0,0.5l0,0l0,0c0,0.1,0,0.2,0,0.2l0,0l-1.1,0l0,0
		c0-0.1,0-0.2,0-0.3l0,0l0,0c0-0.3,0-0.6,0.1-0.8l0,0l0,0c0.1-0.2,0.2-0.4,0.3-0.5l0,0l0,0c0.1-0.1,0.3-0.2,0.6-0.3l0,0l0,0
		c0.2-0.1,0.5-0.1,0.7-0.1l0,0l0,0c0.2,0,0.5,0,0.9,0l0,0l0,0c0.5,0,1,0,1.3,0.1l0,0l0,0c0.3,0.1,0.6,0.2,0.8,0.5l0,0l0,0
		c0.2,0.2,0.4,0.5,0.4,0.8l0,0l0,0C69.6-39.4,69.6-39,69.6-38.4L69.6-38.4z M68.3-35.6L68.3-35.6v-1.2l0,0c-0.9,0-1.6,0-2.1,0.1l0,0
		l0,0c-0.5,0.1-0.8,0.2-1,0.3l0,0l0,0c-0.2,0.1-0.2,0.3-0.2,0.5l0,0l0,0c0,0,0,0,0,0l0,0l0,0c0,0.7,0.1,1.1,0.2,1.3l0,0l0,0
		c0.1,0.2,0.5,0.3,1,0.3l0,0l0,0c0.5,0,0.9-0.1,1.2-0.2l0,0l0,0c0.3-0.1,0.5-0.3,0.6-0.5l0,0l0,0C68.2-35.1,68.3-35.3,68.3-35.6z
		 M77.7-43.9v10.5h-1.2l-0.1-0.9l0,0c-0.3,0.7-1,1-2.2,1l0,0l0,0c-0.3,0-0.6,0-0.8-0.1l0,0l0,0c-0.2,0-0.5-0.1-0.6-0.2l0,0l0,0
		c-0.2-0.1-0.3-0.2-0.5-0.3l0,0l0,0c-0.1-0.1-0.2-0.3-0.3-0.5l0,0l0,0c-0.1-0.2-0.1-0.4-0.2-0.5l0,0l0,0c0-0.2-0.1-0.4-0.1-0.7l0,0
		l0,0c0-0.3,0-0.6,0-0.8l0,0l0,0c0-0.2,0-0.5,0-0.9l0,0l0,0c0-0.4,0-0.7,0-1l0,0l0,0c0-0.3,0-0.5,0.1-0.8l0,0l0,0
		c0-0.3,0.1-0.5,0.1-0.7l0,0l0,0c0.1-0.2,0.1-0.4,0.2-0.5l0,0l0,0c0.1-0.2,0.2-0.3,0.3-0.4l0,0l0,0c0.1-0.1,0.3-0.2,0.5-0.3l0,0l0,0
		c0.2-0.1,0.4-0.1,0.6-0.2l0,0l0,0c0.2,0,0.5,0,0.8,0l0,0l0,0c0.6,0,1,0.1,1.4,0.2l0,0l0,0c0.3,0.2,0.6,0.4,0.7,0.8l0,0v-3.7
		L77.7-43.9z M76.3-35.2L76.3-35.2v-4l0,0c0-0.4-0.1-0.7-0.4-0.8l0,0l0,0c-0.2-0.1-0.7-0.2-1.4-0.2l0,0l0,0c-0.5,0-0.9,0-1.2,0.1
		l0,0l0,0C73.2-40,73-39.9,73-39.5l0,0l0,0c-0.1,0.3-0.1,0.7-0.1,1.3l0,0l0,0c0,0.8,0,1.9,0,3.2l0,0l0,0c0,0.3,0.1,0.5,0.4,0.6l0,0
		l0,0c0.2,0.1,0.7,0.2,1.3,0.2l0,0l0,0c0.6,0,1.1-0.1,1.3-0.2l0,0l0,0C76.2-34.6,76.3-34.9,76.3-35.2z M89.8-36.4L89.8-36.4
		L89.8-36.4c0,0.3,0,0.5,0,0.8l0,0l0,0c0,0.2,0,0.4-0.1,0.6l0,0l0,0c0,0.2-0.1,0.4-0.1,0.5l0,0l0,0c0,0.1-0.1,0.3-0.2,0.4l0,0l0,0
		c-0.1,0.1-0.2,0.2-0.3,0.3l0,0l0,0c-0.1,0.1-0.2,0.1-0.3,0.2l0,0l0,0c-0.2,0.1-0.3,0.1-0.4,0.1l0,0l0,0c-0.1,0-0.3,0-0.6,0.1l0,0
		l0,0c-0.2,0-0.5,0-0.7,0l0,0l0,0c-0.2,0-0.5,0-0.8,0l0,0h-3.7v-10.2h3.9l0,0c0.5,0,0.9,0,1.3,0.1l0,0l0,0c0.3,0.1,0.6,0.2,0.9,0.3
		l0,0l0,0c0.3,0.1,0.5,0.3,0.6,0.6l0,0l0,0c0.1,0.2,0.2,0.6,0.2,1l0,0l0,0.7l0,0c0,0.3,0,0.6,0,0.8l0,0l0,0c0,0.2-0.1,0.4-0.1,0.5
		l0,0l0,0c-0.1,0.2-0.1,0.3-0.3,0.4l0,0l0,0c-0.1,0.1-0.3,0.2-0.4,0.2l0,0l0,0C88.4-39,88.2-39,88-38.9l0,0l0,0
		c0.3,0,0.6,0.1,0.8,0.2l0,0l0,0c0.2,0.1,0.4,0.2,0.5,0.4l0,0l0,0c0.1,0.1,0.2,0.3,0.3,0.6l0,0l0,0c0.1,0.2,0.1,0.4,0.1,0.6l0,0l0,0
		C89.8-36.9,89.8-36.7,89.8-36.4z M88-40.2v-1.1l0,0c0,0,0,0,0,0l0,0l0,0c0-0.2,0-0.3,0-0.4l0,0l0,0c0-0.1,0-0.2,0-0.3l0,0l0,0
		c0-0.1-0.1-0.2-0.1-0.2l0,0l0,0c0,0-0.1-0.1-0.2-0.1l0,0l0,0c-0.1-0.1-0.2-0.1-0.3-0.1l0,0l0,0c-0.1,0-0.2,0-0.4,0l0,0l0,0
		c-0.2,0-0.4,0-0.6,0l0,0l0,0c-0.2,0-0.4,0-0.8,0l0,0H84v3.3h1.4l0,0c0.6,0,1.1,0,1.5,0l0,0l0,0c0.4,0,0.6-0.1,0.8-0.2l0,0l0,0
		c0.2-0.1,0.3-0.2,0.4-0.3l0,0l0,0C88-39.9,88-40.1,88-40.2L88-40.2z M88.4-35.8l0-0.9l0,0c0-0.5,0-0.9-0.1-1l0,0l0,0
		c-0.1-0.2-0.2-0.4-0.5-0.5l0,0l0,0c-0.3-0.1-1-0.2-2.1-0.2l0,0l0,0c-0.1,0-0.2,0-0.2,0l0,0H84v4h2.6l0,0c0.5,0,0.9,0,1.2-0.1l0,0
		l0,0c0.3-0.1,0.5-0.2,0.5-0.4l0,0l0,0C88.4-35.2,88.4-35.5,88.4-35.8L88.4-35.8z M94.5-34.3L94.5-34.3L94.5-34.3
		c0.6,0,1.1-0.1,1.3-0.1l0,0l0,0c0.3-0.1,0.4-0.3,0.4-0.5l0,0l0,0c0.1-0.7,0.1-1.4,0.1-2.3l0,0l0,0c0-0.3,0-0.7,0-1.2l0,0l0,0
		c0-0.5,0-0.9,0-1.2l0,0l0,0c0-0.1,0-0.1,0-0.2l0,0l0,0c0-0.1-0.1-0.1-0.1-0.2l0,0l0,0C96-40,96-40,95.9-40.1l0,0l0,0
		c-0.1,0-0.1-0.1-0.2-0.1l0,0l0,0c-0.1,0-0.2,0-0.3,0l0,0l0,0c-0.1,0-0.2,0-0.3,0l0,0l0,0c-0.1,0-0.2,0-0.3,0l0,0l0,0
		c-0.1,0-0.2,0-0.3,0l0,0l0,0c-0.1,0-0.2,0-0.3,0l0,0l0,0c-0.1,0-0.2,0-0.3,0l0,0l0,0c-0.1,0-0.2,0-0.3,0l0,0l0,0
		c-0.1,0-0.2,0-0.3,0l0,0l0,0c-0.1,0-0.2,0-0.2,0.1l0,0l0,0C93-40,93-40,92.9-39.9l0,0l0,0c-0.1,0-0.1,0.1-0.1,0.2l0,0l0,0
		c0,0.1,0,0.1,0,0.2l0,0l0,0c0,0.3,0,0.6,0,1.2l0,0l0,0c0,0.5,0,0.9,0,1.2l0,0l0,0c0,0.9,0,1.6,0.1,2.3l0,0l0,0
		c0,0.2,0.1,0.4,0.4,0.5l0,0l0,0C93.4-34.3,93.9-34.3,94.5-34.3z M94.5-33.4L94.5-33.4L94.5-33.4c-0.5,0-0.9,0-1.3-0.1l0,0l0,0
		c-0.3,0-0.6-0.1-0.9-0.3l0,0l0,0c-0.2-0.1-0.4-0.3-0.5-0.4l0,0l0,0c-0.1-0.2-0.2-0.4-0.3-0.8l0,0l0,0c-0.1-0.3-0.1-0.7-0.1-1l0,0
		l0,0c0-0.3,0-0.8,0-1.4l0,0l0,0c0-0.4,0-0.8,0-1.1l0,0l0,0c0-0.3,0-0.6,0.1-0.9l0,0l0,0c0-0.3,0.1-0.5,0.2-0.7l0,0l0,0
		c0.1-0.2,0.1-0.3,0.3-0.5l0,0l0,0c0.1-0.2,0.3-0.3,0.4-0.4l0,0l0,0c0.1-0.1,0.3-0.2,0.6-0.2l0,0l0,0c0.2-0.1,0.5-0.1,0.7-0.1l0,0
		l0,0c0.3,0,0.6,0,1,0l0,0l0,0c0.4,0,0.7,0,0.9,0l0,0l0,0c0.3,0,0.5,0.1,0.7,0.1l0,0l0,0c0.2,0.1,0.4,0.1,0.5,0.2l0,0l0,0
		c0.1,0.1,0.3,0.2,0.4,0.4l0,0l0,0c0.1,0.2,0.2,0.3,0.3,0.5l0,0l0,0c0.1,0.2,0.1,0.4,0.2,0.7l0,0l0,0c0,0.3,0.1,0.6,0.1,0.9l0,0l0,0
		c0,0.3,0,0.7,0,1.1l0,0l0,0c0,0.6,0,1,0,1.4l0,0l0,0c0,0.3-0.1,0.7-0.1,1l0,0l0,0c-0.1,0.3-0.2,0.6-0.3,0.8l0,0l0,0
		c-0.1,0.2-0.3,0.3-0.6,0.4l0,0l0,0c-0.2,0.1-0.5,0.2-0.9,0.3l0,0l0,0C95.4-33.4,95-33.4,94.5-33.4z M102.5-34.3L102.5-34.3
		L102.5-34.3c0.6,0,1.1-0.1,1.3-0.1l0,0l0,0c0.3-0.1,0.4-0.3,0.4-0.5l0,0l0,0c0.1-0.7,0.1-1.4,0.1-2.3l0,0l0,0c0-0.3,0-0.7,0-1.2
		l0,0l0,0c0-0.5,0-0.9,0-1.2l0,0l0,0c0-0.1,0-0.1,0-0.2l0,0l0,0c0-0.1-0.1-0.1-0.1-0.2l0,0l0,0c-0.1,0-0.1-0.1-0.2-0.1l0,0l0,0
		c-0.1,0-0.1-0.1-0.2-0.1l0,0l0,0c-0.1,0-0.2,0-0.3,0l0,0l0,0c-0.1,0-0.2,0-0.3,0l0,0l0,0c-0.1,0-0.2,0-0.3,0l0,0l0,0
		c-0.1,0-0.2,0-0.3,0l0,0l0,0c-0.1,0-0.2,0-0.3,0l0,0l0,0c-0.1,0-0.2,0-0.3,0l0,0l0,0c-0.1,0-0.2,0-0.3,0l0,0l0,0
		c-0.1,0-0.2,0-0.3,0l0,0l0,0c-0.1,0-0.2,0-0.2,0.1l0,0l0,0c-0.1,0-0.1,0.1-0.2,0.1l0,0l0,0c-0.1,0-0.1,0.1-0.1,0.2l0,0l0,0
		c0,0.1,0,0.1,0,0.2l0,0l0,0c0,0.3,0,0.6,0,1.2l0,0l0,0c0,0.5,0,0.9,0,1.2l0,0l0,0c0,0.9,0,1.6,0.1,2.3l0,0l0,0
		c0,0.2,0.1,0.4,0.4,0.5l0,0l0,0C101.4-34.3,101.9-34.3,102.5-34.3z M102.5-33.4L102.5-33.4L102.5-33.4c-0.5,0-0.9,0-1.3-0.1l0,0
		l0,0c-0.3,0-0.6-0.1-0.9-0.3l0,0l0,0c-0.2-0.1-0.4-0.3-0.6-0.4l0,0l0,0c-0.1-0.2-0.2-0.4-0.3-0.8l0,0l0,0c-0.1-0.3-0.1-0.7-0.1-1
		l0,0l0,0c0-0.3,0-0.8,0-1.4l0,0l0,0c0-0.4,0-0.8,0-1.1l0,0l0,0c0-0.3,0-0.6,0.1-0.9l0,0l0,0c0-0.3,0.1-0.5,0.2-0.7l0,0l0,0
		c0.1-0.2,0.2-0.3,0.3-0.5l0,0l0,0c0.1-0.2,0.2-0.3,0.4-0.4l0,0l0,0c0.1-0.1,0.3-0.2,0.6-0.2l0,0l0,0c0.2-0.1,0.5-0.1,0.7-0.1l0,0
		l0,0c0.3,0,0.6,0,1,0l0,0l0,0c0.4,0,0.7,0,0.9,0l0,0l0,0c0.3,0,0.5,0.1,0.7,0.1l0,0l0,0c0.2,0.1,0.4,0.1,0.6,0.2l0,0l0,0
		c0.1,0.1,0.3,0.2,0.4,0.4l0,0l0,0c0.1,0.2,0.2,0.3,0.3,0.5l0,0l0,0c0.1,0.2,0.1,0.4,0.2,0.7l0,0l0,0c0,0.3,0.1,0.6,0.1,0.9l0,0l0,0
		c0,0.3,0,0.7,0,1.1l0,0l0,0c0,0.6,0,1,0,1.4l0,0l0,0c0,0.3-0.1,0.7-0.1,1l0,0l0,0c-0.1,0.3-0.2,0.6-0.3,0.8l0,0l0,0
		c-0.1,0.2-0.3,0.3-0.6,0.4l0,0l0,0c-0.2,0.1-0.5,0.2-0.9,0.3l0,0l0,0C103.4-33.4,103-33.4,102.5-33.4z M117.5-38.1v4.6h-1.3V-38
		l0,0c0-0.5,0-0.9,0-1.2l0,0l0,0c0-0.2,0-0.3,0-0.4l0,0l0,0c0-0.1-0.1-0.2-0.2-0.3l0,0l0,0c-0.1-0.1-0.2-0.2-0.4-0.2l0,0l0,0
		c-0.2-0.1-0.4-0.1-0.7-0.1l0,0l0,0c-0.3,0-0.6,0-0.8,0.1l0,0l0,0c-0.2,0-0.4,0.1-0.5,0.2l0,0l0,0c-0.1,0.1-0.2,0.2-0.3,0.3l0,0l0,0
		c-0.1,0.1-0.1,0.3-0.1,0.4l0,0l0,0c0,0.1,0,0.3,0,0.5l0,0l0,0c0,0.1,0,0.3,0,0.5l0,0l0,0c0,0.3,0,0.5,0,0.6l0,0v4.2h-1.3v-4.8l0,0
		c0,0,0-0.1,0-0.1l0,0l0,0c0-0.3,0-0.5,0-0.7l0,0l0,0c0-0.1,0-0.3,0-0.5l0,0l0,0c0-0.2-0.1-0.3-0.1-0.4l0,0l0,0
		c-0.1-0.1-0.1-0.1-0.3-0.2l0,0l0,0c-0.1-0.1-0.3-0.1-0.4-0.1l0,0l0,0c-0.2,0-0.4,0-0.6,0l0,0l0,0c-0.2,0-0.3,0-0.5,0l0,0l0,0
		c-0.1,0-0.3,0.1-0.4,0.1l0,0l0,0c-0.1,0-0.3,0.1-0.3,0.2l0,0l0,0c-0.1,0.1-0.1,0.2-0.1,0.3l0,0l0,0c-0.1,0.6-0.1,1.3-0.1,2l0,0v4.1
		h-1.3V-41h1.2l0.1,0.8l0,0c0.2-0.4,0.4-0.6,0.8-0.8l0,0l0,0c0.3-0.2,0.8-0.2,1.3-0.2l0,0l0,0c0.5,0,0.9,0.1,1.2,0.3l0,0l0,0
		c0.3,0.2,0.5,0.4,0.7,0.8l0,0l0,0c0.4-0.7,1.1-1.1,2.2-1.1l0,0l0,0c0.4,0,0.7,0,0.9,0.1l0,0l0,0c0.3,0,0.5,0.1,0.7,0.2l0,0l0,0
		c0.2,0.1,0.3,0.2,0.4,0.4l0,0l0,0c0.1,0.1,0.2,0.3,0.3,0.6l0,0l0,0c0.1,0.2,0.1,0.5,0.1,0.8l0,0l0,0
		C117.5-38.8,117.5-38.5,117.5-38.1L117.5-38.1z"/>
</g>
<g id="ab983aaf-09da-4fbc-8186-d8d37a8afa68" transform="matrix(0.40537056791163506,0,0,0.40537056791163506,129.6499920336715,99.31069431153597)">
	<g>
		<path class="st1" d="M3.4-148.8c-4.4,0-8-3.6-8-8c0-4.4,3.6-8,8-8c4.4,0,8,3.6,8,8C11.4-152.3,7.8-148.8,3.4-148.8z M3.4-160.3
			c-2,0-3.6,1.6-3.6,3.6c0,2,1.6,3.6,3.6,3.6c2,0,3.6-1.6,3.6-3.6C7-158.7,5.4-160.3,3.4-160.3z M-21.6-161.8c-4.4,0-8-3.6-8-8
			c0-4.4,3.6-8,8-8s8,3.6,8,8C-13.6-165.3-17.2-161.8-21.6-161.8z M-21.6-173.3c-2,0-3.6,1.6-3.6,3.6c0,2,1.6,3.6,3.6,3.6
			c2,0,3.6-1.6,3.6-3.6C-18-171.7-19.6-173.3-21.6-173.3z M-21.6-188.8c-4.4,0-8-3.6-8-8c0-4.4,3.6-8,8-8s8,3.6,8,8
			C-13.6-192.3-17.2-188.8-21.6-188.8z M-21.6-200.3c-2,0-3.6,1.6-3.6,3.6s1.6,3.6,3.6,3.6c2,0,3.6-1.6,3.6-3.6
			S-19.6-200.3-21.6-200.3z M-21.6-208.8c-4.4,0-8-3.6-8-8s3.6-8,8-8s8,3.6,8,8S-17.2-208.8-21.6-208.8z M-21.6-220.3
			c-2,0-3.6,1.6-3.6,3.6s1.6,3.6,3.6,3.6c2,0,3.6-1.6,3.6-3.6S-19.6-220.3-21.6-220.3z M3.4-204.2c-4.4,0-8-3.6-8-8s3.6-8,8-8
			c4.4,0,8,3.6,8,8S7.8-204.2,3.4-204.2z M3.4-215.8c-2,0-3.6,1.6-3.6,3.6s1.6,3.6,3.6,3.6c2,0,3.6-1.6,3.6-3.6S5.4-215.8,3.4-215.8
			z M3.4-224.2c-4.4,0-8-3.6-8-8s3.6-8,8-8c4.4,0,8,3.6,8,8S7.8-224.2,3.4-224.2z M3.4-235.8c-2,0-3.6,1.6-3.6,3.6s1.6,3.6,3.6,3.6
			c2,0,3.6-1.6,3.6-3.6S5.4-235.8,3.4-235.8z"/>
		<path class="st1" d="M1.4-227.1h4v8.5h-4V-227.1z M1.4-205.2h4v42.5h-4V-205.2z M20.8-169.8c0-4.4,3.6-8,8-8c4.4,0,8,3.6,8,8
			c0,4.4-3.6,8-8,8C24.4-161.8,20.8-165.3,20.8-169.8z M25.2-169.8c0,2,1.6,3.6,3.6,3.6c2,0,3.6-1.6,3.6-3.6c0-2-1.6-3.6-3.6-3.6
			C26.8-173.3,25.2-171.7,25.2-169.8z M20.8-196.8c0-4.4,3.6-8,8-8c4.4,0,8,3.6,8,8c0,4.4-3.6,8-8,8
			C24.4-188.8,20.8-192.3,20.8-196.8z M25.2-196.8c0,2,1.6,3.6,3.6,3.6c2,0,3.6-1.6,3.6-3.6s-1.6-3.6-3.6-3.6
			C26.8-200.3,25.2-198.7,25.2-196.8z M20.8-216.8c0-4.4,3.6-8,8-8c4.4,0,8,3.6,8,8s-3.6,8-8,8C24.4-208.8,20.8-212.3,20.8-216.8z
			 M25.2-216.8c0,2,1.6,3.6,3.6,3.6c2,0,3.6-1.6,3.6-3.6s-1.6-3.6-3.6-3.6C26.8-220.3,25.2-218.7,25.2-216.8z"/>
		<path class="st1" d="M26.8-191.8h4v18h-4V-191.8z M26.8-210.8h4v8.5h-4V-210.8z M24.8-201.3l-2.1,3.4l-15.3-9.5l2.1-3.4
			L24.8-201.3z M10.4-155.9l-2.1-3.4l15.3-9.5l2.1,3.4L10.4-155.9z M24.8-221.3l-2.1,3.4l-15.3-9.5l2.1-3.4L24.8-221.3z"/>
	</g>
</g>
<g transform="matrix(0.492511311613822,0,0,0.492511311613822,52.086290481805065,190.84137292926724)">
	<path class="st0" d="M-37.5-194.9v-1.1h6.9v1.1h-2.9v8.7h-1.2v-8.7H-37.5z M-20.5-189.8v3.6h-1.1v-9.8h1.1v4.1h0.2l0,0
		c0.2-0.5,0.5-0.8,0.9-1.1l0,0l0,0c0.4-0.3,0.9-0.4,1.4-0.4l0,0l0,0c0.8,0,1.4,0.3,1.8,0.8l0,0l0,0c0.5,0.5,0.7,1.3,0.7,2.3l0,0v4.1
		h-1.1v-3.9l0,0c0-0.7-0.2-1.3-0.5-1.6l0,0l0,0c-0.3-0.4-0.8-0.5-1.3-0.5l0,0l0,0c-0.7,0-1.2,0.2-1.6,0.7l0,0l0,0
		C-20.3-191.1-20.5-190.5-20.5-189.8L-20.5-189.8z M0.4-189.3h-5.6l0,0c0,0.7,0.2,1.3,0.6,1.7l0,0l0,0c0.4,0.4,1,0.6,1.7,0.6l0,0
		l0,0c0.3,0,0.6,0,0.9-0.1l0,0l0,0c0.2-0.1,0.4-0.2,0.6-0.3l0,0l0,0c0.2-0.1,0.3-0.3,0.4-0.5l0,0l0,0c0.1-0.2,0.2-0.4,0.3-0.6l0,0
		l1,0.3l0,0c-0.2,0.6-0.6,1.2-1.1,1.6l0,0l0,0c-0.5,0.4-1.2,0.6-2.1,0.6l0,0l0,0c-0.5,0-1-0.1-1.4-0.3l0,0l0,0
		c-0.4-0.2-0.8-0.4-1.1-0.7l0,0l0,0c-0.3-0.3-0.5-0.7-0.7-1.1l0,0l0,0c-0.2-0.4-0.3-0.9-0.3-1.5l0,0v-0.3l0,0c0-0.5,0.1-0.9,0.3-1.4
		l0,0l0,0c0.2-0.4,0.4-0.8,0.7-1.1l0,0l0,0c0.3-0.3,0.7-0.5,1.1-0.7l0,0l0,0c0.4-0.2,0.9-0.3,1.3-0.3l0,0l0,0c0.6,0,1.1,0.1,1.5,0.3
		l0,0l0,0c0.4,0.2,0.8,0.5,1,0.8l0,0l0,0c0.3,0.3,0.5,0.6,0.6,1l0,0l0,0c0.1,0.4,0.2,0.7,0.2,1l0,0V-189.3z M-2.9-192.3L-2.9-192.3
		L-2.9-192.3c-0.3,0-0.6,0-0.9,0.1l0,0l0,0c-0.3,0.1-0.5,0.2-0.7,0.4l0,0l0,0c-0.2,0.2-0.4,0.4-0.5,0.6l0,0l0,0
		c-0.1,0.2-0.2,0.5-0.2,0.8l0,0h4.5l0,0c0-0.3-0.1-0.6-0.2-0.8l0,0l0,0c-0.1-0.2-0.3-0.4-0.5-0.6l0,0l0,0c-0.2-0.2-0.4-0.3-0.7-0.4
		l0,0l0,0C-2.4-192.2-2.6-192.3-2.9-192.3z M24.9-187.2h2.8v-8.2h-0.2l-1.6,3.7h-1.2v-0.1l1.8-4.1h2.3v8.7h2.8v1.1h-6.7V-187.2z
		 M40.3-190v-2.2l0,0c0-1.3,0.3-2.3,0.9-3l0,0l0,0c0.6-0.7,1.5-1.1,2.5-1.1l0,0l0,0c1.1,0,1.9,0.4,2.5,1.1l0,0l0,0
		c0.6,0.7,0.9,1.7,0.9,3l0,0v2.2l0,0c0,1.3-0.3,2.3-0.9,3l0,0l0,0c-0.6,0.7-1.5,1-2.5,1l0,0l0,0c-1.1,0-1.9-0.3-2.5-1l0,0l0,0
		C40.6-187.7,40.3-188.7,40.3-190L40.3-190z M43.7-187L43.7-187L43.7-187c0.8,0,1.3-0.3,1.7-0.8l0,0l0,0c0.4-0.5,0.6-1.3,0.6-2.2
		l0,0v-2l0,0c0-0.4,0-0.9-0.1-1.2l0,0l0,0c-0.1-0.4-0.2-0.7-0.4-1l0,0l0,0c-0.2-0.3-0.4-0.5-0.7-0.6l0,0l0,0c-0.3-0.1-0.6-0.2-1-0.2
		l0,0l0,0c-0.4,0-0.7,0.1-1,0.2l0,0l0,0c-0.3,0.2-0.5,0.4-0.7,0.6l0,0l0,0c-0.2,0.3-0.3,0.6-0.4,1l0,0l0,0c-0.1,0.4-0.1,0.8-0.1,1.2
		l0,0v2l0,0c0,1,0.2,1.7,0.6,2.2l0,0l0,0C42.4-187.3,43-187,43.7-187z M42.9-191.1L42.9-191.1L42.9-191.1c0-0.2,0.1-0.4,0.3-0.6l0,0
		l0,0c0.2-0.2,0.4-0.3,0.6-0.3l0,0l0,0c0.2,0,0.5,0.1,0.6,0.3l0,0l0,0c0.2,0.2,0.3,0.4,0.3,0.6l0,0l0,0c0,0.2-0.1,0.4-0.3,0.6l0,0
		l0,0c-0.2,0.2-0.4,0.3-0.6,0.3l0,0l0,0c-0.2,0-0.4-0.1-0.6-0.3l0,0l0,0C42.9-190.6,42.9-190.8,42.9-191.1z M55.9-190v-2.2l0,0
		c0-1.3,0.3-2.3,0.9-3l0,0l0,0c0.6-0.7,1.5-1.1,2.5-1.1l0,0l0,0c1.1,0,1.9,0.4,2.5,1.1l0,0l0,0c0.6,0.7,0.9,1.7,0.9,3l0,0v2.2l0,0
		c0,1.3-0.3,2.3-0.9,3l0,0l0,0c-0.6,0.7-1.5,1-2.5,1l0,0l0,0c-1.1,0-1.9-0.3-2.5-1l0,0l0,0C56.2-187.7,55.9-188.7,55.9-190L55.9-190
		z M59.3-187L59.3-187L59.3-187c0.8,0,1.3-0.3,1.7-0.8l0,0l0,0c0.4-0.5,0.6-1.3,0.6-2.2l0,0v-2l0,0c0-0.4,0-0.9-0.1-1.2l0,0l0,0
		c-0.1-0.4-0.2-0.7-0.4-1l0,0l0,0c-0.2-0.3-0.4-0.5-0.7-0.6l0,0l0,0c-0.3-0.1-0.6-0.2-1-0.2l0,0l0,0c-0.4,0-0.7,0.1-1,0.2l0,0l0,0
		c-0.3,0.2-0.5,0.4-0.7,0.6l0,0l0,0c-0.2,0.3-0.3,0.6-0.4,1l0,0l0,0c-0.1,0.4-0.1,0.8-0.1,1.2l0,0v2l0,0c0,1,0.2,1.7,0.6,2.2l0,0
		l0,0C58-187.3,58.6-187,59.3-187z M58.4-191.1L58.4-191.1L58.4-191.1c0-0.2,0.1-0.4,0.3-0.6l0,0l0,0c0.2-0.2,0.4-0.3,0.6-0.3l0,0
		l0,0c0.2,0,0.5,0.1,0.6,0.3l0,0l0,0c0.2,0.2,0.3,0.4,0.3,0.6l0,0l0,0c0,0.2-0.1,0.4-0.3,0.6l0,0l0,0c-0.2,0.2-0.4,0.3-0.6,0.3l0,0
		l0,0c-0.2,0-0.5-0.1-0.6-0.3l0,0l0,0C58.5-190.6,58.4-190.8,58.4-191.1z M71.6-194.9v-1.1h3.2l0,0c1.2,0,2.1,0.3,2.7,0.9l0,0l0,0
		c0.6,0.6,0.8,1.5,0.8,2.8l0,0v2.5l0,0c0,1.3-0.3,2.2-0.8,2.8l0,0l0,0c-0.6,0.6-1.4,0.9-2.7,0.9l0,0h-3.2v-1.1h0.8v-7.6H71.6z
		 M73.6-187.2h1l0,0c0.4,0,0.8,0,1.1-0.1l0,0l0,0c0.3-0.1,0.6-0.2,0.8-0.4l0,0l0,0c0.2-0.2,0.4-0.5,0.4-0.8l0,0l0,0
		c0.1-0.3,0.2-0.8,0.2-1.3l0,0v-2.4l0,0c0-0.5-0.1-0.9-0.2-1.3l0,0l0,0c-0.1-0.3-0.2-0.6-0.4-0.8l0,0l0,0c-0.2-0.2-0.5-0.4-0.8-0.4
		l0,0l0,0c-0.3-0.1-0.7-0.1-1.1-0.1l0,0h-1V-187.2z M93.8-189.3h-5.6l0,0c0,0.7,0.2,1.3,0.6,1.7l0,0l0,0c0.4,0.4,1,0.6,1.7,0.6l0,0
		l0,0c0.3,0,0.6,0,0.9-0.1l0,0l0,0c0.2-0.1,0.4-0.2,0.6-0.3l0,0l0,0c0.2-0.1,0.3-0.3,0.4-0.5l0,0l0,0c0.1-0.2,0.2-0.4,0.3-0.6l0,0
		l1,0.3l0,0c-0.2,0.6-0.6,1.2-1.1,1.6l0,0l0,0c-0.5,0.4-1.2,0.6-2.1,0.6l0,0l0,0c-0.5,0-1-0.1-1.4-0.3l0,0l0,0
		c-0.4-0.2-0.8-0.4-1.1-0.7l0,0l0,0c-0.3-0.3-0.5-0.7-0.7-1.1l0,0l0,0c-0.2-0.4-0.3-0.9-0.3-1.5l0,0v-0.3l0,0c0-0.5,0.1-0.9,0.3-1.4
		l0,0l0,0c0.2-0.4,0.4-0.8,0.7-1.1l0,0l0,0c0.3-0.3,0.7-0.5,1.1-0.7l0,0l0,0c0.4-0.2,0.9-0.3,1.4-0.3l0,0l0,0c0.6,0,1.1,0.1,1.5,0.3
		l0,0l0,0c0.4,0.2,0.8,0.5,1,0.8l0,0l0,0c0.3,0.3,0.5,0.6,0.6,1l0,0l0,0c0.1,0.4,0.2,0.7,0.2,1l0,0V-189.3z M90.5-192.3L90.5-192.3
		L90.5-192.3c-0.3,0-0.6,0-0.9,0.1l0,0l0,0c-0.3,0.1-0.5,0.2-0.7,0.4l0,0l0,0c-0.2,0.2-0.4,0.4-0.5,0.6l0,0l0,0
		c-0.1,0.2-0.2,0.5-0.2,0.8l0,0h4.5l0,0c0-0.3-0.1-0.6-0.2-0.8l0,0l0,0c-0.1-0.2-0.3-0.4-0.5-0.6l0,0l0,0c-0.2-0.2-0.4-0.3-0.7-0.4
		l0,0l0,0C91-192.2,90.8-192.3,90.5-192.3z M109.5-193.1l-2.4,6.9h-2.2l-2.4-6.9h1.3l2.1,6.4h0.2l2.1-6.4H109.5z M120-191.3
		L120-191.3L120-191.3c0,0.3,0.1,0.6,0.4,0.8l0,0l0,0c0.3,0.2,0.8,0.3,1.6,0.3l0,0l0,0c0.8,0.1,1.4,0.3,1.8,0.6l0,0l0,0
		c0.4,0.3,0.6,0.8,0.6,1.4l0,0v0.1l0,0c0,0.3-0.1,0.6-0.2,0.9l0,0l0,0c-0.1,0.3-0.3,0.5-0.6,0.7l0,0l0,0c-0.2,0.2-0.5,0.3-0.9,0.4
		l0,0l0,0c-0.3,0.1-0.7,0.2-1.1,0.2l0,0l0,0c-0.5,0-1-0.1-1.4-0.2l0,0l0,0c-0.4-0.1-0.7-0.3-1-0.6l0,0l0,0c-0.3-0.2-0.5-0.5-0.6-0.8
		l0,0l0,0c-0.1-0.3-0.2-0.6-0.2-0.9l0,0l1-0.3l0,0c0,0.5,0.3,1,0.6,1.3l0,0l0,0c0.4,0.3,0.9,0.5,1.5,0.5l0,0l0,0
		c0.5,0,0.9-0.1,1.2-0.3l0,0l0,0c0.3-0.2,0.5-0.5,0.5-0.8l0,0l0,0c0-0.4-0.2-0.7-0.5-0.8l0,0l0,0c-0.3-0.2-0.8-0.3-1.5-0.3l0,0l0,0
		c-0.8-0.1-1.4-0.2-1.9-0.6l0,0l0,0c-0.4-0.3-0.6-0.8-0.6-1.4l0,0v-0.1l0,0c0-0.3,0.1-0.6,0.2-0.9l0,0l0,0c0.1-0.2,0.3-0.5,0.6-0.6
		l0,0l0,0c0.2-0.2,0.5-0.3,0.8-0.4l0,0l0,0c0.3-0.1,0.6-0.1,0.9-0.1l0,0l0,0c0.5,0,0.9,0.1,1.2,0.2l0,0l0,0c0.3,0.1,0.6,0.3,0.9,0.5
		l0,0l0,0c0.2,0.2,0.4,0.4,0.5,0.7l0,0l0,0c0.1,0.3,0.2,0.5,0.2,0.8l0,0l-1,0.3l0,0c0-0.4-0.2-0.8-0.5-1.1l0,0l0,0
		c-0.3-0.3-0.7-0.4-1.2-0.4l0,0l0,0c-0.2,0-0.4,0-0.6,0.1l0,0l0,0c-0.2,0-0.3,0.1-0.5,0.2l0,0l0,0c-0.1,0.1-0.3,0.2-0.3,0.3l0,0l0,0
		C120-191.6,120-191.5,120-191.3z M155-192.6v-0.5l0,0c0-0.3-0.1-0.6-0.2-0.8l0,0l0,0c-0.1-0.2-0.3-0.4-0.5-0.6l0,0l0,0
		c-0.2-0.2-0.5-0.3-0.7-0.4l0,0l0,0c-0.3-0.1-0.6-0.1-0.9-0.1l0,0l0,0c-0.3,0-0.5,0-0.8,0.1l0,0l0,0c-0.2,0.1-0.5,0.2-0.7,0.3l0,0
		l0,0c-0.2,0.1-0.3,0.3-0.5,0.5l0,0l0,0c-0.1,0.2-0.2,0.4-0.2,0.7l0,0v0.1l0,0c0,0.3,0.1,0.5,0.2,0.7l0,0l0,0
		c0.1,0.2,0.3,0.3,0.5,0.5l0,0l0,0c0.2,0.1,0.5,0.2,0.8,0.3l0,0l0,0c0.3,0.1,0.7,0.2,1.1,0.2l0,0l0,0c1,0.2,1.8,0.5,2.3,0.9l0,0l0,0
		c0.5,0.4,0.7,1,0.7,1.8l0,0v0.2l0,0c0,0.4-0.1,0.8-0.2,1.1l0,0l0,0c-0.1,0.4-0.4,0.7-0.6,0.9l0,0l0,0c-0.3,0.3-0.6,0.4-1.1,0.6l0,0
		l0,0c-0.4,0.1-0.9,0.2-1.4,0.2l0,0l0,0c-0.6,0-1.2-0.1-1.7-0.3l0,0l0,0c-0.5-0.2-0.9-0.4-1.2-0.8l0,0l0,0c-0.3-0.3-0.6-0.7-0.7-1.1
		l0,0l0,0c-0.2-0.4-0.3-0.9-0.3-1.4l0,0v-0.4h1.2v0.3l0,0c0,0.9,0.2,1.5,0.7,1.9l0,0l0,0c0.5,0.4,1.1,0.6,2,0.6l0,0l0,0
		c0.7,0,1.3-0.2,1.6-0.5l0,0l0,0c0.4-0.3,0.6-0.7,0.6-1.3l0,0v-0.1l0,0c0-0.5-0.2-0.9-0.6-1.2l0,0l0,0c-0.4-0.3-1-0.5-1.8-0.6l0,0
		l0,0c-0.5-0.1-0.9-0.2-1.3-0.3l0,0l0,0c-0.4-0.1-0.7-0.3-1-0.5l0,0l0,0c-0.3-0.2-0.5-0.5-0.6-0.8l0,0l0,0c-0.1-0.3-0.2-0.7-0.2-1.1
		l0,0v-0.2l0,0c0-0.4,0.1-0.7,0.2-1.1l0,0l0,0c0.2-0.3,0.4-0.6,0.7-0.8l0,0l0,0c0.3-0.2,0.6-0.4,1-0.5l0,0l0,0
		c0.4-0.1,0.8-0.2,1.3-0.2l0,0l0,0c0.6,0,1,0.1,1.5,0.2l0,0l0,0c0.4,0.2,0.8,0.4,1.1,0.6l0,0l0,0c0.3,0.3,0.5,0.6,0.7,0.9l0,0l0,0
		c0.2,0.4,0.2,0.7,0.2,1.1l0,0v0.6H155z M171.8-189.7v0.2l0,0c0,0.6-0.1,1.1-0.3,1.5l0,0l0,0c-0.2,0.4-0.4,0.8-0.8,1.1l0,0l0,0
		c-0.3,0.3-0.7,0.5-1.1,0.7l0,0l0,0c-0.4,0.2-0.9,0.2-1.3,0.2l0,0l0,0c-0.5,0-0.9-0.1-1.3-0.2l0,0l0,0c-0.4-0.2-0.8-0.4-1.1-0.7l0,0
		l0,0c-0.3-0.3-0.6-0.7-0.8-1.1l0,0l0,0c-0.2-0.4-0.3-0.9-0.3-1.5l0,0v-0.2l0,0c0-0.6,0.1-1.1,0.3-1.5l0,0l0,0
		c0.2-0.4,0.4-0.8,0.8-1.1l0,0l0,0c0.3-0.3,0.7-0.5,1.1-0.7l0,0l0,0c0.4-0.2,0.9-0.2,1.3-0.2l0,0l0,0c0.5,0,0.9,0.1,1.3,0.2l0,0l0,0
		c0.4,0.2,0.8,0.4,1.1,0.7l0,0l0,0c0.3,0.3,0.6,0.7,0.8,1.1l0,0l0,0C171.7-190.8,171.8-190.3,171.8-189.7L171.8-189.7z M168.3-187
		L168.3-187L168.3-187c0.3,0,0.6-0.1,0.9-0.2l0,0l0,0c0.3-0.1,0.5-0.3,0.8-0.5l0,0l0,0c0.2-0.2,0.4-0.5,0.5-0.8l0,0l0,0
		c0.1-0.3,0.2-0.7,0.2-1.1l0,0v-0.2l0,0c0-0.4-0.1-0.7-0.2-1l0,0l0,0c-0.1-0.3-0.3-0.6-0.5-0.8l0,0l0,0c-0.2-0.2-0.5-0.4-0.8-0.5
		l0,0l0,0c-0.3-0.1-0.6-0.2-0.9-0.2l0,0l0,0c-0.3,0-0.6,0.1-0.9,0.2l0,0l0,0c-0.3,0.1-0.5,0.3-0.8,0.5l0,0l0,0
		c-0.2,0.2-0.4,0.5-0.5,0.8l0,0l0,0c-0.1,0.3-0.2,0.7-0.2,1l0,0v0.2l0,0c0,0.4,0.1,0.7,0.2,1.1l0,0l0,0c0.1,0.3,0.3,0.6,0.5,0.8l0,0
		l0,0c0.2,0.2,0.5,0.4,0.8,0.5l0,0l0,0C167.6-187.1,168-187,168.3-187z M186.2-188.9l1.1,0.3l0,0c-0.1,0.4-0.2,0.7-0.4,1.1l0,0l0,0
		c-0.2,0.3-0.4,0.6-0.7,0.9l0,0l0,0c-0.3,0.2-0.6,0.4-1,0.6l0,0l0,0c-0.4,0.1-0.8,0.2-1.3,0.2l0,0l0,0c-0.5,0-0.9-0.1-1.4-0.2l0,0
		l0,0c-0.4-0.2-0.8-0.4-1.1-0.7l0,0l0,0c-0.3-0.3-0.6-0.7-0.8-1.1l0,0l0,0c-0.2-0.4-0.3-0.9-0.3-1.5l0,0v-0.2l0,0
		c0-0.6,0.1-1.1,0.3-1.5l0,0l0,0c0.2-0.4,0.4-0.8,0.8-1.1l0,0l0,0c0.3-0.3,0.7-0.6,1.1-0.7l0,0l0,0c0.4-0.2,0.9-0.3,1.4-0.3l0,0l0,0
		c0.4,0,0.8,0.1,1.2,0.2l0,0l0,0c0.4,0.1,0.7,0.3,1,0.6l0,0l0,0c0.3,0.2,0.5,0.5,0.7,0.9l0,0l0,0c0.2,0.3,0.3,0.7,0.4,1.1l0,0
		l-1.1,0.3l0,0c0-0.2-0.1-0.5-0.2-0.7l0,0l0,0c-0.1-0.2-0.2-0.4-0.4-0.6l0,0l0,0c-0.2-0.2-0.4-0.3-0.7-0.4l0,0l0,0
		c-0.3-0.1-0.6-0.1-0.9-0.1l0,0l0,0c-0.3,0-0.6,0.1-0.9,0.2l0,0l0,0c-0.3,0.1-0.6,0.3-0.8,0.5l0,0l0,0c-0.2,0.2-0.4,0.5-0.5,0.8l0,0
		l0,0c-0.1,0.3-0.2,0.7-0.2,1l0,0v0.2l0,0c0,0.4,0.1,0.7,0.2,1.1l0,0l0,0c0.1,0.3,0.3,0.6,0.5,0.8l0,0l0,0c0.2,0.2,0.5,0.4,0.8,0.5
		l0,0l0,0c0.3,0.1,0.6,0.2,1,0.2l0,0l0,0c0.3,0,0.7-0.1,0.9-0.2l0,0l0,0c0.3-0.1,0.5-0.2,0.6-0.4l0,0l0,0c0.2-0.2,0.3-0.4,0.4-0.6
		l0,0l0,0C186.1-188.4,186.2-188.6,186.2-188.9L186.2-188.9z M198.5-195.2L198.5-195.2L198.5-195.2c0-0.3,0.1-0.5,0.3-0.7l0,0l0,0
		c0.2-0.2,0.4-0.3,0.7-0.3l0,0l0,0c0.3,0,0.5,0.1,0.7,0.3l0,0l0,0c0.2,0.2,0.3,0.4,0.3,0.7l0,0l0,0c0,0.3-0.1,0.5-0.3,0.7l0,0l0,0
		c-0.2,0.2-0.4,0.3-0.7,0.3l0,0l0,0c-0.3,0-0.5-0.1-0.7-0.3l0,0l0,0C198.6-194.7,198.5-194.9,198.5-195.2z M196.5-186.2v-1h2.4v-4.9
		h-2.2v-1h3.3v5.9h2.3v1H196.5z M217-187.2L217-187.2l-0.2-0.1l0,0c-0.2,0.5-0.5,0.8-0.9,1l0,0l0,0c-0.4,0.2-0.8,0.3-1.3,0.3l0,0
		l0,0c-0.5,0-0.9-0.1-1.3-0.2l0,0l0,0c-0.4-0.2-0.7-0.4-1-0.7l0,0l0,0c-0.3-0.3-0.5-0.7-0.7-1.1l0,0l0,0c-0.2-0.4-0.3-1-0.3-1.5l0,0
		v-0.2l0,0c0-0.6,0.1-1.1,0.3-1.5l0,0l0,0c0.2-0.4,0.4-0.8,0.7-1.1l0,0l0,0c0.3-0.3,0.6-0.5,1-0.7l0,0l0,0c0.4-0.2,0.8-0.2,1.3-0.2
		l0,0l0,0c0.5,0,0.9,0.1,1.3,0.3l0,0l0,0c0.4,0.2,0.7,0.5,0.9,1l0,0h0.2v-1.1h1.1v5.5l0,0c0,0.3,0.1,0.4,0.4,0.4l0,0h0.4v1H218l0,0
		c-0.3,0-0.6-0.1-0.8-0.3l0,0l0,0C217.1-186.7,217-186.9,217-187.2L217-187.2z M214.7-187L214.7-187L214.7-187
		c0.3,0,0.6-0.1,0.9-0.2l0,0l0,0c0.3-0.1,0.5-0.3,0.7-0.5l0,0l0,0c0.2-0.2,0.3-0.5,0.5-0.8l0,0l0,0c0.1-0.3,0.2-0.7,0.2-1l0,0v-0.2
		l0,0c0-0.4-0.1-0.7-0.2-1l0,0l0,0c-0.1-0.3-0.3-0.6-0.5-0.8l0,0l0,0c-0.2-0.2-0.4-0.4-0.7-0.5l0,0l0,0c-0.3-0.1-0.6-0.2-0.9-0.2
		l0,0l0,0c-0.3,0-0.6,0.1-0.9,0.2l0,0l0,0c-0.3,0.1-0.5,0.3-0.7,0.5l0,0l0,0c-0.2,0.2-0.4,0.5-0.5,0.8l0,0l0,0
		c-0.1,0.3-0.2,0.7-0.2,1l0,0v0.2l0,0c0,0.8,0.2,1.4,0.6,1.9l0,0l0,0C213.5-187.2,214.1-187,214.7-187z M227.5-186.2v-1h2.5v-7.8
		h-2.4v-1h3.5v8.8h2.5v1H227.5z M260.8-196l2.8,9.3h0.2v-9.3h1.2v9.8h-2.4l-2.8-9.3h-0.2v9.3h-1.2v-9.8H260.8z M280.6-189.3H275l0,0
		c0,0.7,0.2,1.3,0.6,1.7l0,0l0,0c0.4,0.4,1,0.6,1.7,0.6l0,0l0,0c0.3,0,0.6,0,0.8-0.1l0,0l0,0c0.2-0.1,0.5-0.2,0.6-0.3l0,0l0,0
		c0.2-0.1,0.3-0.3,0.4-0.5l0,0l0,0c0.1-0.2,0.2-0.4,0.3-0.6l0,0l1,0.3l0,0c-0.2,0.6-0.6,1.2-1.1,1.6l0,0l0,0
		c-0.5,0.4-1.2,0.6-2.1,0.6l0,0l0,0c-0.5,0-0.9-0.1-1.4-0.3l0,0l0,0c-0.4-0.2-0.8-0.4-1.1-0.7l0,0l0,0c-0.3-0.3-0.5-0.7-0.7-1.1l0,0
		l0,0c-0.2-0.4-0.3-0.9-0.3-1.5l0,0v-0.3l0,0c0-0.5,0.1-0.9,0.3-1.4l0,0l0,0c0.2-0.4,0.4-0.8,0.7-1.1l0,0l0,0
		c0.3-0.3,0.7-0.5,1.1-0.7l0,0l0,0c0.4-0.2,0.9-0.3,1.4-0.3l0,0l0,0c0.6,0,1.1,0.1,1.5,0.3l0,0l0,0c0.4,0.2,0.8,0.5,1,0.8l0,0l0,0
		c0.3,0.3,0.5,0.6,0.6,1l0,0l0,0c0.1,0.4,0.2,0.7,0.2,1l0,0V-189.3z M277.3-192.3L277.3-192.3L277.3-192.3c-0.3,0-0.6,0-0.9,0.1l0,0
		l0,0c-0.3,0.1-0.5,0.2-0.7,0.4l0,0l0,0c-0.2,0.2-0.4,0.4-0.5,0.6l0,0l0,0c-0.1,0.2-0.2,0.5-0.3,0.8l0,0h4.5l0,0
		c0-0.3-0.1-0.6-0.2-0.8l0,0l0,0c-0.1-0.2-0.3-0.4-0.5-0.6l0,0l0,0c-0.2-0.2-0.4-0.3-0.7-0.4l0,0l0,0
		C277.9-192.2,277.6-192.3,277.3-192.3z M289.5-192.1v-1h2.2v-2.9h1.1v2.9h2.7v1h-2.7v4.5l0,0c0,0.3,0.1,0.4,0.4,0.4l0,0h2v1h-2.4
		l0,0c-0.3,0-0.6-0.1-0.8-0.3l0,0l0,0c-0.2-0.2-0.3-0.5-0.3-0.8l0,0v-4.9H289.5z M312.4-193.1l-1.1,6.9h-2l-0.8-6.4h-0.2l-0.8,6.4
		h-2l-1.1-6.9h1.1l0.9,6.4h0.2l0.8-6.4h2l0.8,6.4h0.2l0.9-6.4H312.4z M327.5-189.7v0.2l0,0c0,0.6-0.1,1.1-0.3,1.5l0,0l0,0
		c-0.2,0.4-0.4,0.8-0.8,1.1l0,0l0,0c-0.3,0.3-0.7,0.5-1.1,0.7l0,0l0,0c-0.4,0.2-0.9,0.2-1.3,0.2l0,0l0,0c-0.5,0-0.9-0.1-1.3-0.2l0,0
		l0,0c-0.4-0.2-0.8-0.4-1.1-0.7l0,0l0,0c-0.3-0.3-0.6-0.7-0.8-1.1l0,0l0,0c-0.2-0.4-0.3-0.9-0.3-1.5l0,0v-0.2l0,0
		c0-0.6,0.1-1.1,0.3-1.5l0,0l0,0c0.2-0.4,0.5-0.8,0.8-1.1l0,0l0,0c0.3-0.3,0.7-0.5,1.1-0.7l0,0l0,0c0.4-0.2,0.9-0.2,1.3-0.2l0,0l0,0
		c0.5,0,0.9,0.1,1.3,0.2l0,0l0,0c0.4,0.2,0.8,0.4,1.1,0.7l0,0l0,0c0.3,0.3,0.6,0.7,0.8,1.1l0,0l0,0
		C327.4-190.8,327.5-190.3,327.5-189.7L327.5-189.7z M324-187L324-187L324-187c0.3,0,0.6-0.1,0.9-0.2l0,0l0,0
		c0.3-0.1,0.5-0.3,0.8-0.5l0,0l0,0c0.2-0.2,0.4-0.5,0.5-0.8l0,0l0,0c0.1-0.3,0.2-0.7,0.2-1.1l0,0v-0.2l0,0c0-0.4-0.1-0.7-0.2-1l0,0
		l0,0c-0.1-0.3-0.3-0.6-0.5-0.8l0,0l0,0c-0.2-0.2-0.5-0.4-0.8-0.5l0,0l0,0c-0.3-0.1-0.6-0.2-0.9-0.2l0,0l0,0c-0.3,0-0.6,0.1-0.9,0.2
		l0,0l0,0c-0.3,0.1-0.5,0.3-0.8,0.5l0,0l0,0c-0.2,0.2-0.4,0.5-0.5,0.8l0,0l0,0c-0.1,0.3-0.2,0.7-0.2,1l0,0v0.2l0,0
		c0,0.4,0.1,0.7,0.2,1.1l0,0l0,0c0.1,0.3,0.3,0.6,0.5,0.8l0,0l0,0c0.2,0.2,0.5,0.4,0.8,0.5l0,0l0,0C323.3-187.1,323.6-187,324-187z
		 M336.1-192.1v-1h2.5v0.9h0.2l0,0c0.2-0.4,0.4-0.7,0.8-0.9l0,0l0,0c0.3-0.2,0.7-0.3,1.1-0.3l0,0l0,0c0.7,0,1.3,0.2,1.7,0.7l0,0l0,0
		c0.4,0.5,0.7,1.1,0.7,2l0,0l-1.1,0.2l0,0c0-0.6-0.2-1.1-0.5-1.4l0,0l0,0c-0.3-0.3-0.7-0.4-1.1-0.4l0,0l0,0c-0.3,0-0.5,0.1-0.8,0.2
		l0,0l0,0c-0.2,0.1-0.4,0.3-0.5,0.5l0,0l0,0c-0.1,0.2-0.2,0.4-0.3,0.7l0,0l0,0c-0.1,0.3-0.1,0.5-0.1,0.8l0,0v2.9h1.8v1h-4.4v-1h1.6
		v-4.9H336.1z M353.8-196v5.7h0.2l2.6-2.9h1.4v0.1l-2.9,3.2v0.3l3.2,3.4v0.1h-1.3l-2.9-3.1h-0.3v3.1h-1.1v-9.8H353.8z"/>
</g>
</svg>
